<svg width="21" height="21" viewBox="0 0 21 21" fill="none" xmlns="http://www.w3.org/2000/svg">
<path d="M10.5 0.290283C4.97715 0.290283 0.5 4.76744 0.5 10.2903C0.5 15.8131 4.97715 20.2903 10.5 20.2903C16.0228 20.2903 20.5 15.8131 20.5 10.2903C20.4936 4.7701 16.0202 0.296712 10.5 0.290283Z" fill="#23BF7C" fill-opacity="0.103693"/>
<path d="M16.2722 7.12366L10.568 14.8645C10.432 15.045 10.2291 15.1632 10.005 15.1927C9.78094 15.2222 9.55441 15.1604 9.37634 15.0212L5.30301 11.7645C4.94356 11.4768 4.88536 10.9523 5.17301 10.5928C5.46066 10.2334 5.98523 10.1752 6.34468 10.4628L9.74134 13.1803L14.9305 6.13782C15.1007 5.88248 15.3974 5.74131 15.7029 5.77035C16.0083 5.7994 16.2731 5.99396 16.3921 6.2768C16.5111 6.55964 16.465 6.88498 16.2722 7.12366Z" fill="#23BF7C"/>
</svg>
