<svg width="24" height="29" viewBox="0 0 24 29" fill="none" xmlns="http://www.w3.org/2000/svg">
<path fill-rule="evenodd" clip-rule="evenodd" d="M15.4866 0.194196C15.6818 0.302858 15.835 0.47377 15.9218 0.679668C16.0086 0.885565 16.0239 1.11459 15.9653 1.3302L13.3093 11.0675H22.9999C23.1948 11.0675 23.3855 11.1245 23.5484 11.2314C23.7113 11.3383 23.8395 11.4905 23.9171 11.6692C23.9947 11.848 24.0184 12.0455 23.9853 12.2376C23.9522 12.4296 23.8636 12.6078 23.7306 12.7502L9.7306 27.7502C9.57812 27.9139 9.37513 28.0218 9.15411 28.0565C8.93308 28.0913 8.70679 28.0509 8.51143 27.9418C8.31606 27.8328 8.16291 27.6614 8.07647 27.455C7.99002 27.2487 7.97528 27.0193 8.0346 26.8035L10.6906 17.0675H0.999937C0.805055 17.0675 0.614424 17.0106 0.451477 16.9037C0.288529 16.7968 0.160367 16.6446 0.0827458 16.4658C0.00512422 16.2871 -0.0185744 16.0895 0.0145635 15.8975C0.0477014 15.7054 0.136231 15.5273 0.269271 15.3849L14.2693 0.384863C14.4218 0.221724 14.6245 0.11432 14.8451 0.0797648C15.0657 0.04521 15.2915 0.0854937 15.4866 0.194196Z" fill="#23BF7C"/>
<path fill-rule="evenodd" clip-rule="evenodd" d="M15.4866 0.194196C15.6818 0.302858 15.835 0.47377 15.9218 0.679668C16.0086 0.885565 16.0239 1.11459 15.9653 1.3302L13.3093 11.0675H22.9999C23.1948 11.0675 23.3855 11.1245 23.5484 11.2314C23.7113 11.3383 23.8395 11.4905 23.9171 11.6692C23.9947 11.848 24.0184 12.0455 23.9853 12.2376C23.9522 12.4296 23.8636 12.6078 23.7306 12.7502L9.7306 27.7502C9.57812 27.9139 9.37513 28.0218 9.15411 28.0565C8.93308 28.0913 8.70679 28.0509 8.51143 27.9418C8.31606 27.8328 8.16291 27.6614 8.07647 27.455C7.99002 27.2487 7.97528 27.0193 8.0346 26.8035L10.6906 17.0675H0.999937C0.805055 17.0675 0.614424 17.0106 0.451477 16.9037C0.288529 16.7968 0.160367 16.6446 0.0827458 16.4658C0.00512422 16.2871 -0.0185744 16.0895 0.0145635 15.8975C0.0477014 15.7054 0.136231 15.5273 0.269271 15.3849L14.2693 0.384863C14.4218 0.221724 14.6245 0.11432 14.8451 0.0797648C15.0657 0.04521 15.2915 0.0854937 15.4866 0.194196Z" fill="url(#paint0_linear_7_1243)"/>
<defs>
<linearGradient id="paint0_linear_7_1243" x1="0" y1="14.0682" x2="23.9999" y2="14.0682" gradientUnits="userSpaceOnUse">
<stop stop-color="#23BF7C"/>
<stop offset="1" stop-color="#10593A"/>
</linearGradient>
</defs>
</svg>
