<svg width="173" height="56" viewBox="0 0 173 56" fill="none" xmlns="http://www.w3.org/2000/svg">
<path fill-rule="evenodd" clip-rule="evenodd" d="M28.6904 0C28.9466 0 29.2029 0 29.4591 0C29.4591 0.342295 29.4591 0.684616 29.4591 1.02691C29.2029 1.02691 28.9466 1.02691 28.6904 1.02691C28.6904 0.684616 28.6904 0.342295 28.6904 0Z" fill="#495E57"/>
<path fill-rule="evenodd" clip-rule="evenodd" d="M37.9146 3.33746C37.2989 3.32411 36.7012 3.4097 36.1211 3.59419C36.3291 3.21087 36.6707 3.03971 37.146 3.08073C37.4601 3.08574 37.7163 3.17133 37.9146 3.33746Z" fill="#234D36"/>
<path fill-rule="evenodd" clip-rule="evenodd" d="M22.7976 4.3644C22.7123 4.3644 22.6267 4.3644 22.5414 4.3644C22.1522 4.13082 21.7253 3.91687 21.2603 3.72258C21.4312 3.63701 21.6018 3.55142 21.7727 3.46585C20.99 3.30303 20.2214 3.34583 19.4668 3.59421C19.4952 3.43571 19.5806 3.30734 19.723 3.20912C20.4917 3.03796 21.2603 3.03796 22.029 3.20912C22.4494 3.49897 22.7056 3.88406 22.7976 4.3644Z" fill="#659B76"/>
<path fill-rule="evenodd" clip-rule="evenodd" d="M22.542 4.3644C22.6273 4.3644 22.7129 4.3644 22.7982 4.3644C22.9663 4.65234 23.0516 4.99464 23.0544 5.39131C23.0696 6.06111 22.8987 6.66031 22.542 7.1884C22.3711 7.1884 22.2005 7.1884 22.0296 7.1884C21.8287 11.6829 21.6578 16.2186 21.5171 20.795C21.2609 20.795 21.0047 20.795 20.7485 20.795C20.5958 16.3061 20.4249 11.856 20.2361 7.44513C20.1507 7.44513 20.0652 7.44513 19.9798 7.44513C19.8945 7.27389 19.809 7.10291 19.7236 6.93167C20.1515 6.99611 20.5358 7.16735 20.8766 7.44513C20.9568 6.37791 21.1705 5.35105 21.5171 4.3644C21.8587 4.3644 22.2005 4.3644 22.542 4.3644Z" fill="#56D386"/>
<path fill-rule="evenodd" clip-rule="evenodd" d="M19.4665 3.5942C18.9992 4.45326 18.8285 5.39458 18.9541 6.41821C18.6617 5.61208 18.6189 4.75633 18.826 3.85093C18.9979 3.65777 19.2113 3.57217 19.4665 3.5942Z" fill="#6A9677"/>
<path fill-rule="evenodd" clip-rule="evenodd" d="M28.1781 4.3644C28.0421 5.20631 27.5297 5.54868 26.6409 5.39131C26.6232 6.05469 26.3244 6.56815 25.7441 6.93168C25.5663 7.97245 25.6091 8.99936 25.8722 10.0124C25.7141 9.98391 25.586 9.89842 25.4879 9.75568C24.638 7.00844 25.5348 5.21134 28.1781 4.3644Z" fill="#59BB87"/>
<path fill-rule="evenodd" clip-rule="evenodd" d="M37.9148 3.33746C38.6578 3.31379 39.0849 3.65608 39.1959 4.36437C39.1938 5.14605 39.1085 5.91629 38.9396 6.67492C38.6834 6.67492 38.4272 6.67492 38.171 6.67492C38.171 6.93165 38.171 7.18838 38.171 7.4451C37.9155 12.8775 37.83 18.3542 37.9148 23.8757C37.4633 23.839 37.0362 23.9247 36.6337 24.1324C36.4628 18.5281 36.2922 12.9658 36.1213 7.4451C35.3775 6.98171 35.0359 6.29727 35.0964 5.39128C34.989 4.48957 35.3306 3.89055 36.1213 3.59418C36.7013 3.4097 37.2991 3.32411 37.9148 3.33746Z" fill="#3FB379"/>
<path fill-rule="evenodd" clip-rule="evenodd" d="M28.1783 4.36436C29.0858 4.28406 29.9398 4.36965 30.7404 4.62109C31.4355 5.27793 31.948 6.04824 32.2777 6.93164C32.2114 7.84765 31.6989 8.18986 30.7404 7.95855C30.7404 8.30077 30.7404 8.64325 30.7404 8.98546C30.3886 8.94516 30.0469 8.98803 29.7156 9.11383C29.2359 9.70251 28.8516 10.3443 28.5626 11.0393C28.3907 10.8462 28.1773 10.7605 27.9221 10.7826C27.2098 10.6041 26.5265 10.3474 25.8723 10.0124C25.6092 8.99933 25.5664 7.97242 25.7442 6.93164C26.3246 6.56811 26.6233 6.05466 26.641 5.39127C27.5298 5.54865 28.0422 5.20627 28.1783 4.36436Z" fill="#3FDA87"/>
<path fill-rule="evenodd" clip-rule="evenodd" d="M39.1958 4.3644C39.4863 4.99759 39.5291 5.68218 39.3239 6.41822C39.1209 6.96864 38.7366 7.31086 38.1709 7.44513C38.1709 7.1884 38.1709 6.93167 38.1709 6.67495C38.4271 6.67495 38.6833 6.67495 38.9395 6.67495C39.1084 5.91632 39.1937 5.14608 39.1958 4.3644Z" fill="#469A75"/>
<path fill-rule="evenodd" clip-rule="evenodd" d="M22.542 4.3644C22.2004 4.3644 21.8586 4.3644 21.5171 4.3644C21.1704 5.35106 20.9568 6.37792 20.8766 7.44514C20.5358 7.16736 20.1515 6.99612 19.7236 6.93168C19.5212 6.70037 19.265 6.52913 18.9549 6.41823C18.8294 5.3946 19 4.45328 19.4674 3.59422C20.2219 3.34583 20.9906 3.30304 21.7733 3.46585C21.6024 3.55142 21.4318 3.63701 21.2609 3.72258C21.7259 3.91687 22.1528 4.13083 22.542 4.3644Z" fill="#71E493"/>
<path fill-rule="evenodd" clip-rule="evenodd" d="M18.9541 6.41821C19.2641 6.52912 19.5203 6.70036 19.7227 6.93167C19.8081 7.10291 19.8936 7.27389 19.979 7.44512C19.3812 7.35963 19.0394 7.01716 18.9541 6.41821Z" fill="#5A8A67"/>
<path fill-rule="evenodd" clip-rule="evenodd" d="M30.7402 4.62111C31.924 4.92718 32.6498 5.69731 32.9181 6.93166C33.2396 8.31773 32.9409 9.51588 32.0213 10.5259C32.4948 9.31461 32.5804 8.11646 32.2775 6.93166C31.9478 6.04826 31.4353 5.27795 30.7402 4.62111Z" fill="#4BA279"/>
<path fill-rule="evenodd" clip-rule="evenodd" d="M14.3424 9.75568C14.1715 9.75568 14.0009 9.75568 13.83 9.75568C13.283 9.27585 12.5997 9.10461 11.7803 9.24222C12.4782 8.61632 13.2469 8.57344 14.0862 9.11386C14.2789 9.28612 14.3645 9.49997 14.3424 9.75568Z" fill="#3E7A5A"/>
<path fill-rule="evenodd" clip-rule="evenodd" d="M16.3922 8.2153C17.3243 8.01941 17.7086 8.36163 17.5452 9.24221C16.6051 9.62961 16.2208 9.28739 16.3922 8.2153Z" fill="#346855"/>
<path fill-rule="evenodd" clip-rule="evenodd" d="M40.4766 8.2153C40.9037 8.2153 41.3305 8.2153 41.7576 8.2153C41.9285 9.24221 41.5014 9.67018 40.4766 9.49894C40.4766 9.07098 40.4766 8.64327 40.4766 8.2153Z" fill="#306452"/>
<path fill-rule="evenodd" clip-rule="evenodd" d="M46.3693 9.24223C44.6194 8.85714 43.8507 9.54183 44.0634 11.2961C43.4254 9.58111 44.0234 8.76805 45.8569 8.85714C46.0916 8.92851 46.2622 9.05687 46.3693 9.24223Z" fill="#396E58"/>
<path fill-rule="evenodd" clip-rule="evenodd" d="M11.7803 9.24221C12.5996 9.10461 13.283 9.27585 13.83 9.75567C13.83 10.3546 13.83 10.9538 13.83 11.5528C13.159 11.6216 12.5184 11.5361 11.9084 11.296C11.781 10.6167 11.7382 9.93204 11.7803 9.24221Z" fill="#3BCB7C"/>
<path fill-rule="evenodd" clip-rule="evenodd" d="M11.7809 9.24222C11.7389 9.93205 11.7817 10.6167 11.909 11.296C12.5191 11.5361 13.1596 11.6216 13.8306 11.5528C13.8306 10.9538 13.8306 10.3546 13.8306 9.75567C14.0015 9.75567 14.1722 9.75567 14.3431 9.75567C14.6974 11.7494 13.9288 12.5196 12.0371 12.0662C11.1616 11.1389 11.0763 10.1975 11.7809 9.24222Z" fill="#50AF7E"/>
<path fill-rule="evenodd" clip-rule="evenodd" d="M46.3698 9.2422C47.3898 10.0794 47.3898 10.9351 46.3698 11.8095C45.5832 11.8434 44.8146 11.7579 44.0639 11.5527C44.0639 11.4673 44.0639 11.3815 44.0639 11.296C43.8512 9.5418 44.6198 8.85711 46.3698 9.2422Z" fill="#268D64"/>
<path fill-rule="evenodd" clip-rule="evenodd" d="M44.0635 11.5528C44.8142 11.7579 45.5828 11.8434 46.3694 11.8095C46.1614 12.1928 45.8198 12.364 45.3446 12.323C44.7189 12.3779 44.292 12.1212 44.0635 11.5528Z" fill="#2E604B"/>
<path fill-rule="evenodd" clip-rule="evenodd" d="M26.1286 14.6335C26.2214 12.9637 25.5809 12.5358 24.207 13.3499C24.0805 13.7694 24.0379 14.1973 24.0789 14.6335C23.527 13.5031 23.8686 12.8187 25.1038 12.5797C26.339 12.8187 26.6805 13.5031 26.1286 14.6335Z" fill="#437459"/>
<path fill-rule="evenodd" clip-rule="evenodd" d="M26.1283 14.6335C25.4355 14.9452 24.7521 14.9452 24.0786 14.6335C24.0376 14.1973 24.0801 13.7694 24.2067 13.3499C25.5805 12.5358 26.221 12.9638 26.1283 14.6335Z" fill="#5DBB89"/>
<path fill-rule="evenodd" clip-rule="evenodd" d="M24.8476 13.0931C25.5096 13.2338 25.7659 13.6618 25.6162 14.3768C25.2747 14.3768 24.9329 14.3768 24.5914 14.3768C24.557 13.9167 24.6424 13.489 24.8476 13.0931Z" fill="#37CE80"/>
<path fill-rule="evenodd" clip-rule="evenodd" d="M32.2775 6.93167C32.5804 8.11647 32.4948 9.31462 32.0213 10.5259C31.936 10.5259 31.8504 10.5259 31.7651 10.5259C30.9765 10.5482 30.3787 10.8904 29.9716 11.5528C29.7177 13.2161 29.6324 14.9277 29.7154 16.6873C29.4592 16.6873 29.203 16.6873 28.9467 16.6873C29.0269 17.3926 28.9416 18.0773 28.6905 18.7412C28.4774 16.264 28.3492 13.7822 28.3062 11.296C28.1225 11.1564 27.9944 10.9851 27.9219 10.7826C28.1771 10.7605 28.3905 10.8463 28.5624 11.0393C28.8514 10.3444 29.2357 9.70254 29.7154 9.11386C30.0467 8.98806 30.3885 8.94519 30.7402 8.98549C30.7402 8.64328 30.7402 8.3008 30.7402 7.95858C31.6988 8.18989 32.2112 7.84768 32.2775 6.93167Z" fill="#29BF75"/>
<path fill-rule="evenodd" clip-rule="evenodd" d="M32.2781 12.5797C34.3242 12.4508 34.8366 13.2639 33.8153 15.0186C33.2827 15.226 32.7702 15.1832 32.2781 14.8902C31.9386 14.1121 31.9386 13.3419 32.2781 12.5797Z" fill="#257B61"/>
<path fill-rule="evenodd" clip-rule="evenodd" d="M42.2706 16.6873C42.2706 16.0884 42.2706 15.4892 42.2706 14.8902C40.6239 14.444 39.9406 15.043 40.2209 16.6873C39.6167 14.4597 40.3854 13.8605 42.5268 14.8902C42.9311 15.5962 42.8458 16.1952 42.2706 16.6873Z" fill="#2F6A56"/>
<path fill-rule="evenodd" clip-rule="evenodd" d="M8.96166 18.2277C9.21864 16.3882 8.45 15.6609 6.65572 16.0455C6.21426 16.2445 5.95804 16.5867 5.88707 17.0724C6.08871 17.6113 6.17403 18.1676 6.14329 18.7411C5.9852 18.7126 5.85709 18.6272 5.75896 18.4844C5.10305 16.2344 5.91449 15.2502 8.19301 15.532C9.52123 16.198 9.77745 17.0965 8.96166 18.2277Z" fill="#579B7A"/>
<path fill-rule="evenodd" clip-rule="evenodd" d="M42.2701 16.6873C41.5688 17.6855 40.8855 17.6855 40.2203 16.6873C39.94 15.043 40.6234 14.444 42.2701 14.8902C42.2701 15.4892 42.2701 16.0884 42.2701 16.6873Z" fill="#147C56"/>
<path fill-rule="evenodd" clip-rule="evenodd" d="M16.3923 14.3768C18.0654 14.3108 18.6206 15.081 18.0577 16.6873C17.3082 17.3443 16.5396 17.3443 15.7517 16.6873C15.4389 15.7164 15.6526 14.9462 16.3923 14.3768Z" fill="#4AA57D"/>
<path fill-rule="evenodd" clip-rule="evenodd" d="M16.6481 14.8902C16.9868 14.8466 17.2858 14.9321 17.5449 15.1469C17.6717 15.6535 17.7145 16.1669 17.673 16.6873C17.1606 16.6873 16.6481 16.6873 16.1357 16.6873C16.0501 15.9972 16.2208 15.3983 16.6481 14.8902Z" fill="#2ABE7A"/>
<path fill-rule="evenodd" clip-rule="evenodd" d="M49.7007 15.4037C52.3497 15.4524 53.0331 16.6077 51.7505 18.8695C49.5934 19.7016 48.6113 18.9742 48.804 16.6873C48.9826 16.1523 49.2816 15.7243 49.7007 15.4037Z" fill="#388767"/>
<path fill-rule="evenodd" clip-rule="evenodd" d="M49.7005 15.9171C51.3275 15.6668 51.968 16.3515 51.6222 17.971C50.7805 18.9832 50.0118 18.8975 49.3162 17.7142C49.1602 17.0557 49.2883 16.4565 49.7005 15.9171Z" fill="#17A168"/>
<path fill-rule="evenodd" clip-rule="evenodd" d="M14.3424 17.971C13.6032 17.8924 12.9199 17.9779 12.2927 18.2277C12.1218 18.2277 11.9512 18.2277 11.7803 18.2277C11.8087 18.0693 11.894 17.9409 12.0365 17.8426C12.8554 17.6359 13.624 17.6788 14.3424 17.971Z" fill="#437B60"/>
<path fill-rule="evenodd" clip-rule="evenodd" d="M36.3776 3.85094C36.9167 3.7742 37.4291 3.85977 37.9149 4.10767C37.2938 4.67596 37.4647 4.93269 38.4273 4.87785C38.4273 5.13458 38.4273 5.39131 38.4273 5.64804C37.7927 5.53276 37.2803 5.70375 36.89 6.16149C37.0271 6.61616 37.2408 6.70165 37.5306 6.41822C37.7235 11.2149 37.6807 16.0073 37.4025 20.795C37.1463 20.795 36.89 20.795 36.6338 20.795C36.7192 16.1708 36.6338 11.5497 36.3776 6.93167C35.8508 6.64209 35.5946 6.17125 35.609 5.51967C35.6254 4.82191 35.8816 4.26568 36.3776 3.85094Z" fill="#3EC97B"/>
<path fill-rule="evenodd" clip-rule="evenodd" d="M8.96228 18.2277C8.38298 18.4208 7.82802 18.6775 7.29688 18.9979C6.9041 18.9278 6.51978 18.8423 6.14391 18.7412C6.17466 18.1676 6.08934 17.6113 5.8877 17.0724C5.95867 16.5867 6.21488 16.2445 6.65634 16.0455C8.45062 15.6609 9.21927 16.3882 8.96228 18.2277Z" fill="#3FC684"/>
<path fill-rule="evenodd" clip-rule="evenodd" d="M25.8721 10.0124C26.5262 10.3474 27.2095 10.6041 27.9218 10.7826C27.9943 10.9851 28.1224 11.1564 28.3061 11.296C28.3492 13.7822 28.4773 16.264 28.6904 18.7411C28.9415 18.0772 29.0269 17.3925 28.9467 16.6873C29.2029 16.6873 29.4591 16.6873 29.7153 16.6873C29.6323 14.9277 29.7176 13.2161 29.9715 11.5527C30.0799 15.7585 29.9518 19.9516 29.5872 24.1324C29.5019 23.7044 29.4163 23.2767 29.331 22.8488C29.2036 23.5281 29.1609 24.2128 29.2029 24.9026C28.9467 24.9026 28.6904 24.9026 28.4342 24.9026C28.4245 20.3588 28.1683 15.9089 27.6656 11.5527C26.8498 11.2791 26.2518 10.7656 25.8721 10.0124Z" fill="#22AB70"/>
<path fill-rule="evenodd" clip-rule="evenodd" d="M8.96193 18.2277C8.94297 18.7183 8.68675 19.0179 8.19328 19.1263C7.59553 19.2975 6.99752 19.2975 6.39977 19.1263C6.25731 19.0279 6.17199 18.8996 6.14355 18.7412C6.51942 18.8423 6.90375 18.9278 7.29653 18.9979C7.82766 18.6775 8.38262 18.4208 8.96193 18.2277Z" fill="#529274"/>
<path fill-rule="evenodd" clip-rule="evenodd" d="M14.3424 17.971C15.9432 19.2182 16.0285 20.5873 14.5986 22.0786C14.3442 24.3425 14.2586 26.653 14.3424 29.0103C14.1684 26.7678 13.9975 24.5001 13.8299 22.207C13.7446 22.1641 13.659 22.1215 13.5737 22.0786C13.4028 24.087 13.2322 26.0553 13.0613 27.9834C13.1038 25.9277 13.0613 23.8739 12.9332 21.8219C11.935 21.6468 11.5506 21.0479 11.7802 20.0248C11.7338 19.3411 11.9045 18.7419 12.2926 18.2277C12.9199 17.9779 13.6032 17.8924 14.3424 17.971Z" fill="#3DBE83"/>
<path fill-rule="evenodd" clip-rule="evenodd" d="M43.5508 18.2277C44.5485 18.1276 45.4878 18.2988 46.3692 18.7412C46.826 19.5832 46.6554 20.225 45.8568 20.6666C46.1409 21.1321 45.97 21.3459 45.3444 21.3084C45.3853 20.8723 45.3428 20.4443 45.2162 20.0248C45.1035 20.4294 44.8901 20.7719 44.5757 21.0517C44.7407 22.4083 44.826 23.7777 44.8319 25.1594C44.8691 26.5719 44.741 27.9413 44.4476 29.267C44.4847 26.6864 44.2713 24.2046 43.8071 21.8219C43.6859 21.4609 43.4297 21.2897 43.0384 21.3084C42.7617 20.4759 42.7189 19.6202 42.9103 18.7412C43.0171 18.4187 43.2306 18.2475 43.5508 18.2277Z" fill="#1DA16E"/>
<path fill-rule="evenodd" clip-rule="evenodd" d="M22.0289 7.18839C22.0289 12.4084 22.0289 17.6287 22.0289 22.8488C21.7726 22.8488 21.5164 22.8488 21.2602 22.8488C21.2625 23.313 21.1344 23.7409 20.8759 24.1324C20.6207 23.2572 20.4073 22.4016 20.2354 21.5652C20.2354 16.8586 20.2354 12.1517 20.2354 7.44511C20.4242 11.856 20.5951 16.3061 20.7478 20.795C21.004 20.795 21.2602 20.795 21.5164 20.795C21.6571 16.2185 21.828 11.6829 22.0289 7.18839Z" fill="#3FAA77"/>
<path fill-rule="evenodd" clip-rule="evenodd" d="M24.5911 20.2815C26.4208 20.3123 26.8479 21.1254 25.8722 22.7205C24.3344 22.9754 23.7795 22.3336 24.2068 20.795C24.3905 20.6553 24.5186 20.4841 24.5911 20.2815Z" fill="#267759"/>
<path fill-rule="evenodd" clip-rule="evenodd" d="M32.0214 20.2815C34.0173 20.0905 34.5298 20.8607 33.5587 22.592C32.9589 22.9032 32.4039 22.8174 31.8933 22.3353C31.7391 21.6368 31.7819 20.9523 32.0214 20.2815Z" fill="#266F58"/>
<path fill-rule="evenodd" clip-rule="evenodd" d="M1.27565 22.0786C0.567983 23.0475 0.311768 24.1599 0.507004 25.4161C-0.123286 24.5409 -0.165818 23.5997 0.378896 22.5921C0.587968 22.2524 0.886972 22.0815 1.27565 22.0786Z" fill="#468A65"/>
<path fill-rule="evenodd" clip-rule="evenodd" d="M5.63147 23.3622C5.63147 23.5335 5.71679 23.619 5.88769 23.619C6.14185 24.0107 6.52617 24.182 7.04066 24.1324C7.86362 23.8862 8.6748 23.8862 9.4747 24.1324C9.08859 24.3607 8.74705 24.6174 8.44984 24.9026C7.33966 24.9026 6.22922 24.9026 5.11904 24.9026C4.59251 26.3901 3.56765 26.8181 2.04445 26.1863C1.72777 25.9662 1.38623 25.7953 1.01959 25.6728C0.317811 22.9959 1.34267 21.7551 4.09417 21.9502C4.57458 22.4845 5.08701 22.9551 5.63147 23.3622Z" fill="#44D788"/>
<path fill-rule="evenodd" clip-rule="evenodd" d="M10.2434 24.9026C9.60154 25.1381 9.00379 25.1381 8.44985 24.9026C8.74706 24.6174 9.0886 24.3607 9.47471 24.1325C8.67481 23.8863 7.86363 23.8863 7.04067 24.1325C6.52618 24.182 6.14186 24.0108 5.8877 23.619C7.18389 23.5143 8.46497 23.3859 9.73093 23.2339C10.4488 23.6783 10.6197 24.2346 10.2434 24.9026Z" fill="#46B180"/>
<path fill-rule="evenodd" clip-rule="evenodd" d="M39.9642 23.3623C41.2455 23.1494 41.8008 23.6629 41.6296 24.9026C40.0113 25.6358 39.4564 25.1224 39.9642 23.3623Z" fill="#296D54"/>
<path fill-rule="evenodd" clip-rule="evenodd" d="M57.6433 22.8488C57.6853 23.5386 57.6425 24.2233 57.5152 24.9026C57.2019 25.5406 56.8175 25.5835 56.3622 25.031C57.0099 24.8592 57.0099 24.6454 56.3622 24.3892C56.0427 24.7758 56.0427 25.1609 56.3622 25.5444C56.1913 25.8867 56.0207 26.2291 55.8498 26.5714C54.8421 26.7983 53.9028 26.6699 53.0314 26.1863C52.8031 25.9909 52.6322 25.7342 52.519 25.4161C51.346 25.1111 50.1931 25.1966 49.0601 25.6728C47.87 25.519 47.4429 24.8343 47.779 23.619C47.9071 23.4906 48.0352 23.3623 48.1633 23.2339C49.5679 23.494 51.0196 23.6223 52.519 23.619C52.5841 22.6755 53.0109 21.9479 53.8001 21.4368C54.849 21.2399 55.8739 21.3254 56.8747 21.6935C57.2951 21.9834 57.5513 22.3685 57.6433 22.8488Z" fill="#18825D"/>
<path fill-rule="evenodd" clip-rule="evenodd" d="M54.3123 21.8219C54.9162 21.7801 55.5139 21.8227 56.1058 21.9503C56.2521 22.2596 56.423 22.5592 56.6182 22.8488C56.7683 22.7952 56.8965 22.7094 57.0025 22.5921C57.1734 22.9343 57.1734 23.2768 57.0025 23.619C56.5165 23.2298 55.9613 23.0586 55.3371 23.1055C55.4634 23.6976 55.5488 24.2965 55.5933 24.9026C55.158 24.8616 54.7309 24.9042 54.3123 25.031C54.5949 25.4623 54.5095 25.8474 54.056 26.1863C53.6289 25.8441 53.2021 25.5016 52.775 25.1594C51.4906 25.0364 50.2523 24.7797 49.0598 24.3892C48.8779 24.7673 48.5792 24.9386 48.1631 24.9026C48.1631 24.4747 48.1631 24.047 48.1631 23.619C49.5994 23.9422 51.0511 24.0706 52.5188 24.0041C53.0819 23.228 53.6797 22.5007 54.3123 21.8219Z" fill="#069867"/>
<path fill-rule="evenodd" clip-rule="evenodd" d="M16.6491 23.3623C18.3516 23.228 18.7785 23.8698 17.9301 25.2877C16.4659 25.3907 16.039 24.7489 16.6491 23.3623Z" fill="#27765C"/>
<path fill-rule="evenodd" clip-rule="evenodd" d="M14.5988 22.0786C14.5563 24.2197 14.5988 26.3591 14.7269 28.4968C14.9106 28.6365 15.0388 28.8077 15.1113 29.0103C14.855 29.0103 14.5988 29.0103 14.3426 29.0103C14.2588 26.653 14.3444 24.3425 14.5988 22.0786Z" fill="#3E534B"/>
<path fill-rule="evenodd" clip-rule="evenodd" d="M24.5908 25.6728C26.0643 25.222 26.4914 25.7355 25.8719 27.2132C26.1473 26.0738 25.7202 25.5604 24.5908 25.6728Z" fill="#4A805B"/>
<path fill-rule="evenodd" clip-rule="evenodd" d="M57.6431 22.8488C58.3528 24.1317 58.1822 25.3725 57.1307 26.5714C55.9672 27.2643 54.7715 27.3498 53.5437 26.8281C53.318 26.6463 53.1473 26.4322 53.0312 26.1863C53.9026 26.67 54.8419 26.7983 55.8496 26.5714C56.0205 26.2292 56.1912 25.8867 56.3621 25.5445C56.0426 25.1609 56.0426 24.7758 56.3621 24.3892C57.0098 24.6454 57.0098 24.8593 56.3621 25.031C56.8173 25.5835 57.2017 25.5406 57.515 24.9026C57.6424 24.2233 57.6852 23.5386 57.6431 22.8488Z" fill="#256E54"/>
<path fill-rule="evenodd" clip-rule="evenodd" d="M32.5339 25.4161C34.0358 25.4577 34.3774 26.0995 33.5588 27.3415C31.9451 27.4686 31.6033 26.8268 32.5339 25.4161Z" fill="#216D58"/>
<path fill-rule="evenodd" clip-rule="evenodd" d="M43.0391 21.3084C43.4303 21.2897 43.6865 21.4609 43.8077 21.8219C43.8502 24.134 43.8077 26.4445 43.6796 28.7535C43.5815 28.8963 43.4534 28.9818 43.2953 29.0103C43.21 29.0103 43.1244 29.0103 43.0391 29.0103C43.1116 28.8077 43.2397 28.6365 43.4234 28.4968C43.5943 26.2717 43.5943 24.0469 43.4234 21.8219C43.2397 21.6822 43.1116 21.511 43.0391 21.3084Z" fill="#174434"/>
<path fill-rule="evenodd" clip-rule="evenodd" d="M36.1213 7.4451C36.2922 12.9658 36.4629 18.528 36.6338 24.1324C37.0363 23.9247 37.4634 23.839 37.9149 23.8757C37.83 18.3542 37.9156 12.8775 38.1711 7.4451C38.0112 13.4615 38.1818 19.4518 38.6835 25.4161C38.3996 27.0216 37.5454 27.4493 36.1213 26.6997C35.508 25.8669 35.4654 25.0112 35.9932 24.1324C36.1213 18.5707 36.1641 13.0081 36.1213 7.4451Z" fill="#2A6652"/>
<path fill-rule="evenodd" clip-rule="evenodd" d="M11.7804 18.2277C11.9513 18.2277 12.122 18.2277 12.2929 18.2277C11.9047 18.7419 11.734 19.3412 11.7804 20.0248C11.5509 21.0479 11.9352 21.6468 12.9334 21.8219C13.0615 23.8739 13.104 25.9278 13.0615 27.9834C12.9362 28.3672 12.7656 28.7097 12.5491 29.0103C12.4638 29.0103 12.3782 29.0103 12.2929 29.0103C12.8593 26.7359 12.9447 24.4254 12.5491 22.0786C11.1245 21.4014 10.6549 20.289 11.1399 18.7412C11.2467 18.4187 11.4602 18.2475 11.7804 18.2277Z" fill="#4B9D7A"/>
<path fill-rule="evenodd" clip-rule="evenodd" d="M22.0293 7.18839C22.2002 7.18839 22.3708 7.18839 22.5417 7.18839C22.2878 14.4433 22.2022 21.7174 22.2855 29.0103C22.2002 29.0103 22.1146 29.0103 22.0293 29.0103C22.0293 26.9564 22.0293 24.9026 22.0293 22.8488C22.0293 17.6287 22.0293 12.4084 22.0293 7.18839Z" fill="#183C2E"/>
<path fill-rule="evenodd" clip-rule="evenodd" d="M24.5915 25.6728C24.3161 26.8121 24.7432 27.3256 25.8726 27.2132C25.3448 27.5497 24.7898 27.5497 24.2072 27.2132C24.1644 26.9564 24.1219 26.6997 24.0791 26.443C24.115 26.0502 24.2859 25.7935 24.5915 25.6728Z" fill="#519F6C"/>
<path fill-rule="evenodd" clip-rule="evenodd" d="M24.5917 25.6728C25.7211 25.5603 26.1482 26.0738 25.8728 27.2132C24.7434 27.3256 24.3163 26.8121 24.5917 25.6728Z" fill="#51CC76"/>
<path fill-rule="evenodd" clip-rule="evenodd" d="M5.631 23.3623C5.08654 22.9551 4.57411 22.4845 4.0937 21.9502C1.3422 21.7551 0.31734 22.9959 1.01911 25.6728C1.38576 25.7953 1.72729 25.9662 2.04398 26.1863C3.56718 26.8181 4.59204 26.3901 5.11856 24.9026C6.22875 24.9026 7.33919 24.9026 8.44937 24.9026C9.00331 25.138 9.60106 25.138 10.2429 24.9026C10.2429 25.1593 10.2429 25.4161 10.2429 25.6728C8.70686 25.4569 7.16957 25.3285 5.631 25.2877C4.7058 27.0227 3.3394 27.5361 1.53155 26.8281C1.02834 26.4556 0.686803 25.985 0.506684 25.4161C0.311447 24.1599 0.567663 23.0475 1.27533 22.0786C1.4183 21.7474 1.67451 21.5336 2.04398 21.4368C3.8111 21.0278 5.00685 21.6696 5.631 23.3623Z" fill="#56AF85"/>
<path fill-rule="evenodd" clip-rule="evenodd" d="M20.2354 21.5652C20.4073 22.4016 20.6207 23.2572 20.8759 24.1324C21.1344 23.7409 21.2625 23.313 21.2602 22.8488C21.5164 22.8488 21.7726 22.8488 22.0289 22.8488C22.0289 24.9026 22.0289 26.9564 22.0289 29.0103C21.4311 29.0103 20.8331 29.0103 20.2354 29.0103C20.2354 26.5285 20.2354 24.0469 20.2354 21.5652Z" fill="#11885F"/>
<path fill-rule="evenodd" clip-rule="evenodd" d="M45.6009 28.4968C45.8056 29.249 45.8909 30.0192 45.8571 30.8074C45.0479 31.1606 44.194 31.3316 43.2949 31.3208C43.2949 30.5506 43.2949 29.7804 43.2949 29.0103C43.453 28.9818 43.5811 28.8963 43.6792 28.7535C43.8074 26.4445 43.8499 24.134 43.8074 21.8219C44.2716 24.2046 44.485 26.6864 44.4479 29.267C44.7413 27.9412 44.8694 26.5719 44.8322 25.1593C44.8263 23.7776 44.741 22.4082 44.576 21.0517C44.8904 20.7719 45.1038 20.4294 45.2165 20.0248C45.3431 20.4443 45.3856 20.8722 45.3446 21.3084C45.9703 21.3459 46.1412 21.132 45.8571 20.6666C46.6557 20.225 46.8263 19.5832 46.3695 18.7411C45.4881 18.2988 44.5488 18.1276 43.5511 18.2277C43.5796 18.0693 43.6649 17.9409 43.8074 17.8426C46.2834 17.3289 47.3508 18.3132 47.01 20.795C46.7859 21.492 46.3162 21.8342 45.6009 21.8219C45.6009 24.0469 45.6009 26.2717 45.6009 28.4968Z" fill="#1E8B64"/>
<path fill-rule="evenodd" clip-rule="evenodd" d="M43.0393 29.0103C43.1246 29.0103 43.2102 29.0103 43.2955 29.0103C43.2955 29.7805 43.2955 30.5506 43.2955 31.3208C40.1515 31.4474 36.9915 31.7041 33.8155 32.091C33.8155 32.4332 33.8155 32.7757 33.8155 33.1179C33.4768 33.0743 33.1778 33.1598 32.9187 33.3746C32.6587 34.1597 32.3599 34.9299 32.022 35.6852C31.6361 36.0053 31.2518 36.0053 30.869 35.6852C31.1836 36.4782 31.0127 37.1627 30.3566 37.739C30.0873 35.7971 30.2154 33.9145 30.7409 32.091C30.7409 32.0055 30.7409 31.9198 30.7409 31.8343C31.5833 31.0772 32.4373 30.307 33.3031 29.5237C33.4986 29.3266 33.7548 29.1982 34.0717 29.1386C37.0597 29.0103 40.049 28.9674 43.0393 29.0103Z" fill="#12A06E"/>
<path fill-rule="evenodd" clip-rule="evenodd" d="M14.3428 29.0103C16.4678 29.4336 18.6884 29.6904 21.0044 29.7805C20.1179 30.1997 19.2636 30.6703 18.4422 31.1925C16.734 31.3637 15.0261 31.3637 13.3179 31.1925C12.6953 30.6007 12.4391 29.8734 12.5493 29.0103C12.7658 28.7097 12.9364 28.3672 13.0617 27.9834C13.2326 26.0553 13.4032 24.087 13.5741 22.0786C13.6594 22.1215 13.745 22.1641 13.8303 22.207C13.9979 24.5001 14.1688 26.7678 14.3428 29.0103Z" fill="#22C07F"/>
<path fill-rule="evenodd" clip-rule="evenodd" d="M12.293 29.0103C12.3783 29.0103 12.4639 29.0103 12.5492 29.0103C12.439 29.8734 12.6952 30.6007 13.3178 31.1925C15.026 31.3637 16.734 31.3637 18.4422 31.1925C19.2636 30.6703 20.1178 30.1997 21.0043 29.7805C18.6884 29.6903 16.4678 29.4336 14.3427 29.0103C14.5989 29.0103 14.8551 29.0103 15.1114 29.0103C16.8195 29.0103 18.5275 29.0103 20.2357 29.0103C20.8334 29.0103 21.4314 29.0103 22.0292 29.0103C22.1145 29.0103 22.2001 29.0103 22.2854 29.0103C23.4914 28.8996 24.5163 29.2418 25.36 30.0372C25.5004 30.5234 25.7566 30.9511 26.1286 31.3208C25.8724 31.4921 25.6162 31.663 25.36 31.8343C24.4325 32.0379 23.4929 32.0379 22.5416 31.8343C19.426 31.6209 16.2661 31.4926 13.0616 31.4492C12.4137 30.7709 12.1574 29.9581 12.293 29.0103Z" fill="#20B47B"/>
<path fill-rule="evenodd" clip-rule="evenodd" d="M33.3024 29.5237C32.4366 30.307 31.5827 31.0772 30.7402 31.8343C31.2739 30.7001 32.1279 29.9299 33.3024 29.5237Z" fill="#39755F"/>
<path fill-rule="evenodd" clip-rule="evenodd" d="M4.6066 33.1179C4.8623 31.663 4.26429 31.0638 2.81309 31.3208C2.75518 32.0266 2.8405 32.7113 3.0693 33.3747C3.37394 33.6132 3.71548 33.6986 4.09417 33.6314C3.06751 34.1438 2.42697 33.8013 2.17255 32.6045C1.79566 31.4407 2.22277 30.8415 3.45363 30.8074C3.87049 30.8395 4.25481 30.9678 4.6066 31.1925C4.94326 31.8612 4.94326 32.5031 4.6066 33.1179Z" fill="#337A62"/>
<path fill-rule="evenodd" clip-rule="evenodd" d="M43.0391 36.1986C44.3588 35.9863 45.7252 35.858 47.1385 35.8135C47.7847 35.4693 48.468 35.2554 49.1882 35.1717C49.1882 34.7438 49.1882 34.316 49.1882 33.8881C49.4445 33.8881 49.7007 33.8881 49.9569 33.8881C49.8813 32.1613 49.9666 30.45 50.2131 28.7535C49.8239 28.0953 49.4396 28.0953 49.0601 28.7535C48.9748 30.4651 48.8892 32.1765 48.8039 33.8881C48.5146 34.3094 48.1303 34.5661 47.6509 34.6583C47.8103 34.3689 48.0237 34.1122 48.2915 33.8881C48.3509 31.8535 48.3937 29.8423 48.4196 27.855C48.932 27.6837 49.4445 27.6837 49.9569 27.855C50.2449 28.0704 50.4158 28.37 50.4693 28.7535C50.283 30.631 50.1549 32.5138 50.085 34.4015C49.7927 34.943 49.4083 35.4136 48.932 35.8135C46.9861 36.1617 45.0217 36.29 43.0391 36.1986Z" fill="#234E47"/>
<path fill-rule="evenodd" clip-rule="evenodd" d="M55.5933 33.1179C55.5488 32.5118 55.4634 31.9128 55.3371 31.3208C54.7394 31.3208 54.1414 31.3208 53.5436 31.3208C53.2285 32.8573 53.8265 33.542 55.3371 33.3746C54.8706 33.9797 54.2725 34.0655 53.5436 33.6314C52.9848 32.922 52.8992 32.1518 53.2874 31.3208C54.0138 30.6885 54.7824 30.6456 55.5933 31.1924C55.93 31.8612 55.93 32.503 55.5933 33.1179Z" fill="#2B6553"/>
<path fill-rule="evenodd" clip-rule="evenodd" d="M12.2927 29.0103C12.1572 29.9581 12.4134 30.7709 13.0614 31.4492C16.2659 31.4926 19.4258 31.621 22.5414 31.8343C22.5414 31.9198 22.5414 32.0055 22.5414 32.091C19.4655 32.1339 16.3909 32.091 13.3176 31.9627C12.1039 31.2572 11.7624 30.2729 12.2927 29.0103Z" fill="#358364"/>
<path fill-rule="evenodd" clip-rule="evenodd" d="M25.3604 30.0372C25.7554 30.2428 26.1823 30.3283 26.6414 30.2939C26.6414 30.5506 26.6414 30.8074 26.6414 31.0641C26.9458 31.6746 27.202 32.3164 27.4101 32.9896C27.1516 33.4761 27.109 33.9466 27.282 34.4016C27.0921 34.6945 26.8784 34.6945 26.6414 34.4016C26.4413 34.7171 26.3132 35.0593 26.2571 35.4285C25.9061 34.7738 25.6071 34.0891 25.3604 33.3747C25.149 33.1472 24.8928 33.0617 24.5917 33.1179C23.8392 32.8684 23.1561 32.5262 22.542 32.091C22.542 32.0055 22.542 31.9198 22.542 31.8343C23.4933 32.0379 24.4329 32.0379 25.3604 31.8343C25.6166 31.663 25.8728 31.4921 26.129 31.3208C25.757 30.9511 25.5008 30.5234 25.3604 30.0372Z" fill="#189E6D"/>
<path fill-rule="evenodd" clip-rule="evenodd" d="M45.6013 28.4968C46.327 28.9864 46.5406 29.6708 46.2419 30.5506C45.9429 31.1924 45.4732 31.663 44.8327 31.9626C41.6728 32.0481 38.5126 32.1339 35.3527 32.2194C34.7911 32.4571 34.2787 32.7567 33.8154 33.1179C33.8154 32.7757 33.8154 32.4332 33.8154 32.091C36.9915 31.7041 40.1514 31.4474 43.2954 31.3208C44.1945 31.3316 45.0484 31.1606 45.8576 30.8073C45.8914 30.0192 45.8061 29.249 45.6013 28.4968Z" fill="#27735B"/>
<path fill-rule="evenodd" clip-rule="evenodd" d="M4.60599 33.1179C4.34977 33.2034 4.17888 33.3746 4.09356 33.6314C3.71487 33.6986 3.37333 33.6131 3.06869 33.3746C2.83989 32.7113 2.75457 32.0266 2.81248 31.3208C4.26368 31.0638 4.86169 31.663 4.60599 33.1179Z" fill="#1B9268"/>
<path fill-rule="evenodd" clip-rule="evenodd" d="M55.5932 33.1179C55.4223 33.1179 55.337 33.2034 55.337 33.3747C53.8264 33.542 53.2283 32.8573 53.5435 31.3208C54.1412 31.3208 54.7392 31.3208 55.337 31.3208C55.4633 31.9128 55.5486 32.5118 55.5932 33.1179Z" fill="#087756"/>
<path fill-rule="evenodd" clip-rule="evenodd" d="M31.7655 10.5258C31.5249 11.2295 31.055 11.743 30.3563 12.0662C30.2282 17.7135 30.1854 23.3615 30.2282 29.0103C30.0171 29.9889 29.8889 31.0158 29.8438 32.091C29.7585 32.0055 29.673 31.9198 29.5876 31.8343C29.3386 32.2977 29.0396 32.7256 28.6909 33.1179C28.478 34.9088 28.3499 36.7059 28.3066 38.5092C28.0403 38.3182 27.9122 38.0615 27.9222 37.739C28.0926 36.9306 28.1779 36.0749 28.1784 35.1717C28.1413 34.0989 27.9704 33.072 27.666 32.091C28.006 25.27 28.006 18.4238 27.666 11.5528C28.1687 15.9089 28.4249 20.3588 28.4347 24.9026C28.6909 24.9026 28.9471 24.9026 29.2033 24.9026C29.1613 24.2128 29.2041 23.5281 29.3314 22.8488C29.4167 23.2768 29.5023 23.7045 29.5876 24.1324C29.9522 19.9516 30.0803 15.7585 29.972 11.5528C30.3791 10.8904 30.9768 10.5482 31.7655 10.5258Z" fill="#1E795C"/>
<path fill-rule="evenodd" clip-rule="evenodd" d="M9.47444 33.1179C9.66327 33.5813 9.91948 34.009 10.2431 34.4016C14.0164 34.7944 17.7743 34.7086 21.5166 34.1448C22.295 34.1207 22.8074 34.4632 23.0539 35.1718C23.0539 35.6852 23.0539 36.1987 23.0539 36.7121C21.8696 36.8638 20.8448 36.5642 19.9793 35.8136C16.4745 35.7707 12.9728 35.6423 9.47444 35.4285C9.03964 35.2067 8.74089 34.8645 8.57768 34.4016C8.52644 32.5061 8.39833 30.6236 8.19336 28.7536C8.40346 28.34 8.74525 28.1687 9.21822 28.2401C9.13546 29.9145 9.22078 31.5403 9.47444 33.1179Z" fill="#107B5F"/>
<path fill-rule="evenodd" clip-rule="evenodd" d="M26.6405 31.0641C27.2383 31.1496 27.5801 31.492 27.6654 32.091C27.9698 33.0719 28.1407 34.0989 28.1778 35.1717C28.1773 36.0749 28.092 36.9306 27.9216 37.739C27.6739 37.4037 27.3321 37.2325 26.8968 37.2255C26.3897 36.8887 25.9629 36.4608 25.6157 35.9419C25.5073 34.8883 25.1655 33.9469 24.5908 33.1179C24.8919 33.0617 25.1481 33.1472 25.3595 33.3746C25.6062 34.0891 25.9052 34.7738 26.2562 35.4284C26.3123 35.0593 26.4404 34.7171 26.6405 34.4015C26.8775 34.6945 27.0912 34.6945 27.2811 34.4015C27.1081 33.9466 27.1507 33.476 27.4092 32.9895C27.2011 32.3164 26.9449 31.6746 26.6405 31.0641Z" fill="#148C63"/>
<path fill-rule="evenodd" clip-rule="evenodd" d="M9.47453 33.1179C9.22088 31.5403 9.13556 29.9144 9.21831 28.2401C8.74534 28.1687 8.40355 28.3399 8.19345 28.7535C8.39842 30.6235 8.52653 32.5061 8.57777 34.4015C8.74098 34.8644 9.03973 35.2066 9.47453 35.4284C12.9729 35.6423 16.4746 35.7707 19.9794 35.8135C20.8449 36.5642 21.8697 36.8638 23.054 36.7121C23.054 36.1986 23.054 35.6852 23.054 35.1717C23.6215 36.356 23.2799 37.1691 22.0291 37.6106C20.8223 37.8984 20.139 37.4278 19.9794 36.1986C16.3772 36.3088 12.7902 36.1804 9.21831 35.8135C8.73714 35.4174 8.35282 34.9468 8.06534 34.4015C8.05996 32.531 7.84654 30.691 7.4248 28.8819C7.73021 27.8729 8.41354 27.5305 9.47453 27.855C9.83169 28.1004 10.0026 28.4426 9.98696 28.8819C9.54089 30.2569 9.36999 31.6689 9.47453 33.1179Z" fill="#236E5B"/>
<path fill-rule="evenodd" clip-rule="evenodd" d="M43.0384 36.1987C41.4988 36.156 39.9615 36.1989 38.4265 36.327C38.2766 36.6613 38.106 36.9609 37.9141 37.2256C38.0552 36.3766 38.1406 35.5209 38.1703 34.6583C41.3302 34.6583 44.4904 34.6583 47.6503 34.6583C48.1296 34.5661 48.514 34.3094 48.8032 33.8881C48.8886 32.1765 48.9741 30.4652 49.0594 28.7535C49.4389 28.0953 49.8232 28.0953 50.2124 28.7535C49.9659 30.45 49.8806 32.1614 49.9562 33.8881C49.7 33.8881 49.4438 33.8881 49.1876 33.8881C49.1876 34.3161 49.1876 34.7438 49.1876 35.1717C48.4673 35.2554 47.784 35.4693 47.1378 35.8136C45.7245 35.858 44.3581 35.9863 43.0384 36.1987Z" fill="#0D5446"/>
<path fill-rule="evenodd" clip-rule="evenodd" d="M0.507344 35.6852C0.763559 35.6852 1.01978 35.6852 1.27599 35.6852C1.27599 36.0274 1.27599 36.3699 1.27599 36.7121C0.391022 36.7719 0.134806 36.4297 0.507344 35.6852Z" fill="#465F56"/>
<path fill-rule="evenodd" clip-rule="evenodd" d="M57.1309 35.6852C57.3871 35.6852 57.6433 35.6852 57.8995 35.6852C57.8995 36.0274 57.8995 36.3699 57.8995 36.7121C57.6433 36.7121 57.3871 36.7121 57.1309 36.7121C57.1309 36.3699 57.1309 36.0274 57.1309 35.6852Z" fill="#435E55"/>
<path fill-rule="evenodd" clip-rule="evenodd" d="M38.1706 34.6583C38.1409 35.5209 38.0556 36.3766 37.9144 37.2256C36.2565 38.214 35.2316 37.7434 34.8398 35.8136C35.0487 34.263 35.9026 33.7495 37.402 34.2732C37.5926 34.54 37.8488 34.6683 38.1706 34.6583Z" fill="#1E8461"/>
<path fill-rule="evenodd" clip-rule="evenodd" d="M6.1434 38.5092C5.42983 38.3023 4.70372 38.1313 3.96556 37.9957C3.32759 38.2104 2.68705 38.3813 2.04395 38.5092C2.52409 37.7344 3.25021 37.3922 4.22178 37.4823C5.17131 37.3362 5.81185 37.6784 6.1434 38.5092Z" fill="#398E6F"/>
<path fill-rule="evenodd" clip-rule="evenodd" d="M30.2283 29.0103C30.1857 30.126 30.2285 31.2384 30.3564 32.3477C30.4545 32.205 30.5826 32.1195 30.7407 32.091C30.2152 33.9146 30.0871 35.7971 30.3564 37.739C31.0125 37.1627 31.1834 36.4782 30.8688 35.6852C31.2516 36.0054 31.6359 36.0054 32.0218 35.6852C32.3597 34.9299 32.6585 34.1597 32.9185 33.3747C33.1776 33.1598 33.4766 33.0743 33.8153 33.1179C33.1086 33.913 32.7243 34.8544 32.6623 35.9419C31.6579 36.6464 31.0174 37.5878 30.7407 38.7659C30.4243 38.8227 30.1681 38.9939 29.972 39.2794C29.7617 40.036 29.6336 40.8062 29.5877 41.59C29.35 40.9391 28.8801 40.6824 28.1785 40.8198C28.1129 40.2313 28.1983 39.675 28.4348 39.151C28.1716 39.0193 27.9154 38.891 27.6661 38.7659C27.2754 38.3254 27.0192 37.8119 26.8975 37.2256C27.3328 37.2325 27.6746 37.4037 27.9223 37.739C27.9123 38.0615 28.0404 38.3182 28.3066 38.5092C28.3499 36.706 28.4781 34.9089 28.691 33.1179C29.0397 32.7257 29.3387 32.2977 29.5877 31.8343C29.673 31.9198 29.7586 32.0055 29.8439 32.091C29.889 31.0158 30.0171 29.9889 30.2283 29.0103Z" fill="#0F6951"/>
<path fill-rule="evenodd" clip-rule="evenodd" d="M55.3368 37.9957C55.5179 38.4152 55.8166 38.7577 56.2335 39.0226C56.45 39.6978 56.3219 40.297 55.8492 40.8197C55.9345 40.991 56.0201 41.162 56.1054 41.3332C56.0168 41.6402 55.8886 41.6402 55.7211 41.3332C55.6358 41.0765 55.5502 40.8197 55.4649 40.563C54.657 41.2413 54.1871 42.097 54.0557 43.1303C53.0242 43.165 52.0846 42.9082 51.2373 42.3601C51.2373 42.2746 51.2373 42.1889 51.2373 42.1034C52.0062 42.1706 52.6895 42.3848 53.287 42.7452C53.1541 42.2251 53.0685 41.7116 53.0308 41.2048C54.0933 40.7432 54.1787 40.2724 53.287 39.7928C53.545 39.0208 54.0575 38.5074 54.8243 38.2525C54.0695 37.9559 53.3009 37.9133 52.5184 38.1241C52.1881 38.5867 51.761 38.8863 51.2373 39.0226C51.8466 37.9457 52.7859 37.4322 54.0557 37.4823C54.5827 37.4658 55.0096 37.6368 55.3368 37.9957Z" fill="#0F8B61"/>
<path fill-rule="evenodd" clip-rule="evenodd" d="M6.14405 38.5092C6.3129 39.2678 6.39822 40.038 6.40027 40.8197C5.97905 40.8747 5.59473 40.7889 5.2473 40.563C4.4743 41.7401 3.4069 42.4245 2.0446 42.6168C1.80017 41.8677 1.62928 41.0975 1.53217 40.3063C1.51705 39.6365 1.68795 39.0373 2.0446 38.5092C2.6877 38.3813 3.32824 38.2104 3.96622 37.9957C4.70438 38.1313 5.43049 38.3023 6.14405 38.5092Z" fill="#1AAE73"/>
<path fill-rule="evenodd" clip-rule="evenodd" d="M50.9813 40.0496C50.9813 40.563 50.9813 41.0765 50.9813 41.5899C46.7842 41.5119 42.5994 41.5974 38.4267 41.8467C38.1295 41.4094 38.3004 41.2385 38.9391 41.3332C38.9391 40.9052 38.9391 40.4775 38.9391 40.0496C42.9533 40.0496 46.9671 40.0496 50.9813 40.0496Z" fill="#11423A"/>
<path fill-rule="evenodd" clip-rule="evenodd" d="M7.42485 41.3332C11.3132 41.2487 15.1564 41.3342 18.9546 41.5899C14.8789 41.429 10.8648 41.6002 6.91242 42.1034C6.85733 41.6723 7.02822 41.4156 7.42485 41.3332Z" fill="#44655B"/>
<path fill-rule="evenodd" clip-rule="evenodd" d="M7.16895 39.7929C12.7209 39.75 18.2723 39.7929 23.823 39.9212C24.9185 40.1279 25.8581 40.5985 26.6413 41.3332C27.0072 41.9781 27.1353 42.6626 27.0257 43.3871C26.6928 43.767 26.2657 43.938 25.7446 43.9005C24.1999 43.4173 22.62 43.0751 21.0046 42.8736C20.8337 42.0179 20.3213 41.6754 19.4673 41.8467C19.2131 41.8908 19.0425 41.8051 18.9549 41.59C15.1567 41.3343 11.3135 41.2488 7.42516 41.3332C7.47 40.7887 7.38442 40.2753 7.16895 39.7929Z" fill="#12725A"/>
<path fill-rule="evenodd" clip-rule="evenodd" d="M55.3368 37.9957C57.5768 39.1261 57.9612 40.752 56.4897 42.8736C55.1118 44.0915 53.6173 44.2198 52.006 43.2587C51.6959 42.9919 51.4397 42.6923 51.2373 42.3601C52.0846 42.9082 53.0242 43.1649 54.0557 43.1303C54.1871 42.097 54.657 41.2413 55.4649 40.563C55.5502 40.8197 55.6358 41.0765 55.7211 41.3332C55.8886 41.6402 56.0168 41.6402 56.1054 41.3332C56.0201 41.162 55.9345 40.991 55.8492 40.8197C56.3219 40.297 56.45 39.6978 56.2335 39.0226C55.8166 38.7577 55.5179 38.4152 55.3368 37.9957Z" fill="#1A7859"/>
<path fill-rule="evenodd" clip-rule="evenodd" d="M51.2377 42.1034C51.2817 41.8487 51.1962 41.6778 50.9814 41.59C50.9814 41.0765 50.9814 40.563 50.9814 40.0496C50.9814 39.9641 50.9814 39.8784 50.9814 39.7929C51.2131 39.6108 51.2984 39.3541 51.2377 39.0227C51.7614 38.8864 52.1885 38.5868 52.5187 38.1241C53.3012 37.9134 54.0699 37.956 54.8247 38.2525C54.0578 38.5074 53.5454 39.0209 53.2874 39.7929C54.179 40.2724 54.0937 40.7433 53.0312 41.2049C53.0688 41.7116 53.1544 42.2251 53.2874 42.7452C52.6899 42.3848 52.0066 42.1707 51.2377 42.1034Z" fill="#109B6A"/>
<path fill-rule="evenodd" clip-rule="evenodd" d="M2.0446 38.5092C1.68795 39.0373 1.51705 39.6365 1.53217 40.3063C1.62927 41.0975 1.80017 41.8677 2.0446 42.6168C3.4069 42.4246 4.47429 41.7401 5.2473 40.563C5.59472 40.7889 5.97905 40.8747 6.40027 40.8198C6.39822 40.038 6.3129 39.2678 6.14405 38.5092C6.8676 38.6347 7.20914 39.0627 7.16891 39.7928C7.38439 40.2752 7.46997 40.7887 7.42513 41.3332C7.02851 41.4156 6.85761 41.6723 6.9127 42.1034C5.78945 43.9367 4.25215 44.3647 2.30082 43.387C0.982842 42.1591 0.684094 40.7042 1.40406 39.0227C1.58546 38.7965 1.79914 38.6255 2.0446 38.5092Z" fill="#229268"/>
<path fill-rule="evenodd" clip-rule="evenodd" d="M27.6657 38.766C27.915 38.891 28.1712 39.0194 28.4343 39.1511C28.1979 39.675 28.1125 40.2314 28.1781 40.8198C28.8796 40.6824 29.3495 40.9392 29.5873 41.59C29.6332 40.8062 29.7613 40.036 29.9716 39.2794C30.1676 38.9939 30.4239 38.8227 30.7403 38.766C30.4556 40.028 30.4128 41.3117 30.6122 42.6169C31.4149 41.1294 32.6535 40.2309 34.3273 39.9212C39.878 39.7929 45.4294 39.75 50.9813 39.7929C50.9813 39.8784 50.9813 39.9641 50.9813 40.0496C46.9672 40.0496 42.9533 40.0496 38.9392 40.0496C38.9392 40.4776 38.9392 40.9053 38.9392 41.3332C38.3004 41.2385 38.1295 41.4095 38.4268 41.8467C37.4624 43.4759 36.0106 44.1177 34.0711 43.7722C33.2184 44.1519 32.5353 44.7079 32.0214 45.4409C31.7652 45.4409 31.5089 45.4409 31.2527 45.4409C31.0006 47.1068 30.7869 47.1068 30.6122 45.4409C30.356 45.1842 30.0997 44.9274 29.8435 44.6707C29.7177 46.5756 29.4615 48.4582 29.0749 50.3187C28.9511 50.0753 28.9086 49.8186 28.9468 49.5485C28.6052 49.5485 28.2635 49.5485 27.9219 49.5485C27.9639 50.2384 27.9211 50.9231 27.7938 51.6024C27.75 50.2253 27.6219 48.8559 27.4095 47.4947C27.2173 46.684 26.8758 45.9993 26.3846 45.4409C25.7282 44.7418 24.9595 44.1857 24.0787 43.7722C22.0853 44.1044 20.548 43.4625 19.4668 41.8467C20.3208 41.6755 20.8332 42.0179 21.0041 42.8736C22.6195 43.0751 24.1994 43.4174 25.7441 43.9005C26.2652 43.938 26.6923 43.767 27.0252 43.3871C27.1348 42.6626 27.0067 41.9781 26.6408 41.3332C27.0823 41.7833 27.4666 42.2967 27.7938 42.8736C27.9498 41.4973 27.9071 40.1279 27.6657 38.766Z" fill="#115648"/>
<path fill-rule="evenodd" clip-rule="evenodd" d="M14.3428 44.6707C14.3428 44.5852 14.3428 44.4994 14.3428 44.4139C16.1929 43.6692 17.1322 44.2681 17.1611 46.211C16.7059 46.2845 16.2787 46.4557 15.8801 46.7245C15.4125 46.429 14.9 46.2578 14.3428 46.211C14.3428 45.6976 14.3428 45.1841 14.3428 44.6707Z" fill="#0C9769"/>
<path fill-rule="evenodd" clip-rule="evenodd" d="M8.19314 44.9274C10.3992 44.6042 10.9972 45.417 9.98665 47.3663C8.13985 47.573 7.54184 46.76 8.19314 44.9274Z" fill="#257A5B"/>
<path fill-rule="evenodd" clip-rule="evenodd" d="M43.8072 46.4678C42.8029 47.489 41.778 47.489 40.7327 46.4678C40.2771 44.0579 41.2167 43.2448 43.551 44.0289C44.4424 44.7978 44.5277 45.6106 43.8072 46.4678Z" fill="#2C6959"/>
<path fill-rule="evenodd" clip-rule="evenodd" d="M43.8078 46.4678C41.4693 47.2901 40.6154 46.5199 41.2457 44.1572C43.2131 43.7657 44.0674 44.5359 43.8078 46.4678Z" fill="#0D805F"/>
<path fill-rule="evenodd" clip-rule="evenodd" d="M14.3425 44.6706C14.3425 45.1841 14.3425 45.6976 14.3425 46.211C14.8997 46.2577 15.4122 46.429 15.8797 46.7245C16.2784 46.4557 16.7055 46.2844 17.1608 46.211C17.1319 44.2681 16.1926 43.6691 14.3425 44.4139C15.4357 43.3731 16.5034 43.4586 17.5451 44.6706C17.7168 46.6374 16.8201 47.4502 14.8549 47.1096C14.5559 46.9812 14.3425 46.7673 14.2143 46.4677C14.0104 45.8159 14.0532 45.217 14.3425 44.6706Z" fill="#318065"/>
<path fill-rule="evenodd" clip-rule="evenodd" d="M36.1211 45.4408C37.2371 45.3595 37.9202 45.8729 38.1708 46.9812C37.7265 48.4176 36.8298 48.8456 35.4805 48.2649C34.8039 47.0713 35.0173 46.1299 36.1211 45.4408Z" fill="#15403D"/>
<path fill-rule="evenodd" clip-rule="evenodd" d="M47.9071 44.9274C50.0104 44.6327 50.6082 45.4029 49.7006 47.238C49.1042 47.5522 48.5064 47.5522 47.9071 47.238C47.6143 46.4683 47.6143 45.6981 47.9071 44.9274Z" fill="#226E5A"/>
<path fill-rule="evenodd" clip-rule="evenodd" d="M21.004 45.4409C22.5098 45.3654 23.1503 46.0499 22.9256 47.4947C22.4488 48.3951 21.7227 48.6944 20.7478 48.3933C20.0089 47.3217 20.0942 46.3376 21.004 45.4409Z" fill="#1C6D59"/>
<path fill-rule="evenodd" clip-rule="evenodd" d="M32.0215 45.4409C32.0904 45.9361 31.9623 46.3638 31.6372 46.7245C31.6052 49.4753 31.4343 52.2139 31.1248 54.9398C30.2885 55.9226 29.2208 56.2222 27.9221 55.8384C27.5252 55.5267 27.2264 55.1416 27.0253 54.6831C27.0263 51.5777 26.8126 48.497 26.3848 45.4409C26.8759 45.9993 27.2175 46.6839 27.4096 47.4947C27.622 48.8559 27.7501 50.2253 27.794 51.6023C27.9213 50.923 27.9641 50.2383 27.9221 49.5485C28.2636 49.5485 28.6054 49.5485 28.9469 49.5485C28.9087 49.8186 28.9513 50.0753 29.075 50.3187C29.4617 48.4582 29.7179 46.5756 29.8437 44.6707C30.0999 44.9274 30.3561 45.1841 30.6123 45.4409C30.7871 47.1068 31.0007 47.1068 31.2529 45.4409C31.5091 45.4409 31.7653 45.4409 32.0215 45.4409Z" fill="#0B3D39"/>
<path fill-rule="evenodd" clip-rule="evenodd" d="M80.4022 20.6556C81.4468 21.0819 82.3777 21.6649 83.1945 22.4043C82.7292 22.4043 82.2636 22.4043 81.7983 22.4043C81.2325 21.8387 80.5345 21.4306 79.7041 21.1802C80.0238 21.083 80.2563 20.9081 80.4022 20.6556Z" fill="#3B9870"/>
<path fill-rule="evenodd" clip-rule="evenodd" d="M80.4028 20.6556C80.2569 20.9081 80.0244 21.083 79.7047 21.1802C80.5351 21.4306 81.2332 21.8387 81.7989 22.4043C81.5407 24.1911 80.6101 24.7737 79.0067 24.1529C78.5414 24.1529 78.0758 24.1529 77.6105 24.1529C75.8653 24.1529 74.1201 24.1529 72.375 24.1529C72.123 24.2991 71.9484 24.5321 71.8514 24.8524C71.695 26.6116 71.4626 28.3602 71.1533 30.0984C70.9205 28.6995 70.6881 27.3006 70.4553 25.9016C70.0615 26.5469 69.887 27.2463 69.9317 28C69.3499 28 68.7684 28 68.1865 28C68.1865 25.4354 68.1865 22.8705 68.1865 20.3059C72.2668 20.2377 76.3386 20.3545 80.4028 20.6556Z" fill="#23BF7C"/>
<path fill-rule="evenodd" clip-rule="evenodd" d="M77.6103 19.9561C74.3528 19.9561 71.0949 19.9561 67.8373 19.9561C67.8373 27.0673 67.8373 34.1788 67.8373 41.2899C71.0949 41.2899 74.3528 41.2899 77.6103 41.2899C74.2994 41.6376 70.9256 41.754 67.4883 41.6397C67.4883 34.2952 67.4883 26.9508 67.4883 19.6064C70.9256 19.492 74.2994 19.6085 77.6103 19.9561Z" fill="#3D7761"/>
<path fill-rule="evenodd" clip-rule="evenodd" d="M77.6101 24.5027C79.3138 25.2752 80.7099 26.4413 81.7986 28C82.9546 32.1989 81.5584 35.1133 77.6101 36.7434C75.9812 36.7434 74.3526 36.7434 72.7236 36.7434C72.7236 32.663 72.7236 28.583 72.7236 24.5027C74.3526 24.5027 75.9812 24.5027 77.6101 24.5027Z" fill="#E9E9E9"/>
<path fill-rule="evenodd" clip-rule="evenodd" d="M77.6104 24.5026C77.6104 24.3862 77.6104 24.2694 77.6104 24.1529C78.0756 24.1529 78.5412 24.1529 79.0065 24.1529C80.6962 24.8496 81.6271 26.1321 81.7988 28C80.7101 26.4412 79.314 25.2752 77.6104 24.5026Z" fill="#34936C"/>
<path fill-rule="evenodd" clip-rule="evenodd" d="M72.375 24.1529C74.1202 24.1529 75.8654 24.1529 77.6105 24.1529C77.6105 24.2694 77.6105 24.3862 77.6105 24.5026C75.9816 24.5026 74.353 24.5026 72.724 24.5026C72.724 28.583 72.724 32.663 72.724 36.7434C74.353 36.7434 75.9816 36.7434 77.6105 36.7434C75.9334 37.0885 74.1882 37.2054 72.375 37.0931C72.375 32.7798 72.375 28.4662 72.375 24.1529Z" fill="#113A2B"/>
<path fill-rule="evenodd" clip-rule="evenodd" d="M81.7991 22.4042C82.2644 22.4042 82.73 22.4042 83.1953 22.4042C83.6016 23.344 84.2413 24.1599 85.115 24.8524C85.1862 26.0055 85.4769 27.0547 85.9876 28C86.0452 29.0555 85.9869 30.1047 85.8131 31.1476C84.8668 30.6489 83.9942 30.7657 83.1953 31.4973C82.9621 30.516 82.7297 29.5836 82.4972 28.6995C82.4972 28.2333 82.2644 28 81.7991 28C81.6274 26.1321 80.6965 24.8496 79.0068 24.1529C80.6103 24.7737 81.5408 24.191 81.7991 22.4042Z" fill="#17AF6F"/>
<path fill-rule="evenodd" clip-rule="evenodd" d="M123.334 25.5518C126.338 25.2059 128.839 26.1383 130.838 28.3497C131.178 29.0114 131.411 29.7109 131.536 30.4481C131.711 34.1766 131.769 37.9073 131.711 41.6396C130.315 41.6396 128.919 41.6396 127.522 41.6396C127.559 40.012 127.093 39.8371 126.126 41.115C123.887 42.2405 121.676 42.1821 119.495 40.9402C116.74 37.1522 117.555 34.4127 121.938 32.7214C123.81 32.6616 125.672 32.4867 127.522 32.1968C127.006 30.8531 126.016 30.0368 124.556 29.7487C123.403 30.0214 122.298 30.3712 121.24 30.7979C120.166 30.7688 119.352 30.3026 118.797 29.3989C118.331 28.9327 118.331 28.4662 118.797 28C119.445 27.4082 120.143 26.8836 120.891 26.4262C121.8 26.2898 122.614 25.9981 123.334 25.5518Z" fill="#153A3E"/>
<path fill-rule="evenodd" clip-rule="evenodd" d="M166.964 29.7487C163.252 29.272 161.39 30.9042 161.379 34.645C161.59 37.1854 162.987 38.3515 165.568 38.1423C166.596 37.8604 167.527 37.3942 168.36 36.7434C169.292 35.1727 170.281 33.657 171.327 32.1968C171.625 32.7651 171.974 32.8816 172.374 32.5466C172.547 33.3544 172.605 34.1704 172.548 34.9947C172.548 35.1112 172.548 35.228 172.548 35.3444C172.067 34.9227 171.659 35.0391 171.327 35.6942C170.592 37.2872 169.603 38.6861 168.36 39.891C166.626 40.2974 164.881 40.3558 163.124 40.0659C162.244 39.5969 161.313 39.3055 160.332 39.1915C160.332 41.0566 160.332 42.9221 160.332 44.7873C159.75 44.7873 159.169 44.7873 158.587 44.7873C158.289 38.9607 158.231 33.1317 158.412 27.3005C158.744 26.3563 159.384 26.0649 160.332 26.4262C160.893 26.7931 161.126 27.3177 161.03 28C162.47 27.2334 163.982 26.6507 165.568 26.2513C166.553 26.2695 167.484 26.5028 168.36 26.9508C168.669 27.2393 168.785 27.5891 168.709 28C169.188 27.9451 169.654 28.0035 170.105 28.1749C169.811 28.7999 169.753 29.4409 169.931 30.0984C169.786 30.2582 169.612 30.3751 169.407 30.4482C168.701 29.863 167.887 29.6298 166.964 29.7487Z" fill="#103D3F"/>
<path fill-rule="evenodd" clip-rule="evenodd" d="M83.1953 22.4042C86.6633 25.3294 87.885 29.06 86.8602 33.5957C86.3733 35.0013 85.7335 36.2838 84.9405 37.4428C85.4215 36.2013 85.7705 34.9188 85.9876 33.5957C86.4529 31.7306 86.4529 29.8651 85.9876 28C85.477 27.0547 85.1862 26.0055 85.115 24.8524C84.2414 24.1599 83.6016 23.344 83.1953 22.4042Z" fill="#348665"/>
<path fill-rule="evenodd" clip-rule="evenodd" d="M94.3642 25.5519C97.3261 25.3539 99.7693 26.3447 101.694 28.5246C101.868 29.0492 102.043 29.5738 102.217 30.0984C102.392 33.9438 102.45 37.7908 102.392 41.6397C100.996 41.6397 99.5997 41.6397 98.2036 41.6397C98.2674 39.6056 97.8022 39.4308 96.8074 41.1151C94.3984 42.2881 92.0713 42.1132 89.8267 40.5905C87.7977 37.7562 88.1468 35.2497 90.8738 33.0712C93.3048 32.7183 95.7481 32.427 98.2036 32.1968C97.4437 30.5346 96.1641 29.7767 94.3642 29.9236C93.456 30.2653 92.5834 30.6734 91.7464 31.1476C90.8089 30.7363 89.9946 30.1533 89.3031 29.399C89.0305 28.8939 89.0888 28.4278 89.4776 28C90.872 26.6448 92.5006 25.8289 94.3642 25.5519Z" fill="#163A3E"/>
<path fill-rule="evenodd" clip-rule="evenodd" d="M107.279 22.0545C108.908 22.0545 110.536 22.0545 112.165 22.0545C112.165 23.337 112.165 24.6191 112.165 25.9016C113.678 25.9016 115.19 25.9016 116.703 25.9016C116.703 27.3006 116.703 28.6995 116.703 30.0984C115.19 30.0984 113.678 30.0984 112.165 30.0984C112.165 32.5466 112.165 34.9947 112.165 37.4428C113.355 37.5306 114.518 37.4138 115.655 37.0931C116.121 38.4921 116.121 39.891 115.655 41.2899C111.114 42.8935 108.38 41.3777 107.453 36.7434C107.279 34.5313 107.221 32.3164 107.279 30.0984C106.348 30.0984 105.417 30.0984 104.486 30.0984C104.486 28.6995 104.486 27.3006 104.486 25.9016C105.417 25.9016 106.348 25.9016 107.279 25.9016C107.279 24.6191 107.279 23.337 107.279 22.0545Z" fill="#133A3E"/>
<path fill-rule="evenodd" clip-rule="evenodd" d="M93.6659 35.3445C95.062 35.3445 96.4582 35.3445 97.8543 35.3445C97.7695 37.2365 96.7807 38.2857 94.8875 38.4921C92.9319 37.9856 92.5249 36.9364 93.6659 35.3445Z" fill="#E9E9E9"/>
<path fill-rule="evenodd" clip-rule="evenodd" d="M123.334 35.3445C124.73 35.3445 126.127 35.3445 127.523 35.3445C127.518 37.3942 126.471 38.4434 124.381 38.4921C122.116 37.9801 121.767 36.9308 123.334 35.3445Z" fill="#E9E9E9"/>
<path fill-rule="evenodd" clip-rule="evenodd" d="M85.9872 28C86.4524 29.8651 86.4524 31.7306 85.9872 33.5958C85.3942 33.5398 84.8123 33.5978 84.242 33.7706C85.1987 34.9045 85.0825 35.9537 83.8929 36.9182C83.5498 37.1249 83.317 37.0081 83.1949 36.5685C83.8169 35.9816 83.9331 35.3406 83.5439 34.645C82.7202 35.7036 81.7893 36.6363 80.7516 37.4428C80.0972 37.9101 79.6319 37.7352 79.3555 36.9182C82.204 34.9517 83.2511 32.2122 82.4968 28.6995C82.7293 29.5836 82.9617 30.516 83.1949 31.4973C83.9938 30.7657 84.8664 30.6489 85.8126 31.1476C85.9865 30.1047 86.0448 29.0555 85.9872 28Z" fill="#099B68"/>
<path fill-rule="evenodd" clip-rule="evenodd" d="M72.3744 24.1529C72.3744 28.4662 72.3744 32.7798 72.3744 37.0931C74.6554 37.3456 76.9824 37.6369 79.3551 37.9674C77.486 38.5809 75.5663 38.989 73.596 39.1915C73.0948 39.1709 72.6295 39.0544 72.1999 38.8418C72.0009 40.0113 71.594 40.1277 70.9783 39.1915C70.654 39.6073 70.5378 40.0735 70.6292 40.5904C70.2802 40.5904 69.9311 40.5904 69.5821 40.5904C69.624 39.6444 69.275 39.4111 68.535 39.891C68.1863 35.9341 68.0701 31.9705 68.186 28C68.7678 28 69.3493 28 69.9311 28C69.8865 27.2463 70.061 26.5468 70.4547 25.9016C70.6875 27.3005 70.92 28.6995 71.1528 30.0984C71.462 28.3602 71.6945 26.6115 71.8508 24.8524C71.9479 24.532 72.1224 24.2991 72.3744 24.1529Z" fill="#18A26E"/>
<path fill-rule="evenodd" clip-rule="evenodd" d="M77.6099 19.9561C78.6127 20.0617 79.5433 20.295 80.4022 20.6556C76.338 20.3544 72.2662 20.2376 68.186 20.3058C68.186 22.8704 68.186 25.4354 68.186 28C68.0701 31.9705 68.1863 35.9341 68.535 39.891C69.2749 39.4111 69.624 39.6444 69.5821 40.5904C69.9311 40.5904 70.2802 40.5904 70.6292 40.5904C70.5378 40.0735 70.654 39.6073 70.9782 39.1915C71.5939 40.1277 72.0009 40.0113 72.1999 38.8418C72.6295 39.0544 73.0948 39.1709 73.596 39.1915C75.5663 38.989 77.486 38.5809 79.3551 37.9674C76.9824 37.6369 74.6553 37.3456 72.3744 37.0931C74.1876 37.2054 75.9328 37.0885 77.6099 36.7434C81.5582 35.1132 82.9544 32.1989 81.7984 28C82.2636 28 82.4964 28.2333 82.4964 28.6995C83.2507 32.2122 82.2036 34.9517 79.3551 36.9182C79.6316 37.7352 80.0968 37.9101 80.7513 37.4428C81.789 36.6363 82.7198 35.7036 83.5436 34.6449C83.9327 35.3406 83.8165 35.9816 83.1945 36.5685C83.3167 37.0081 83.5495 37.1249 83.8926 36.9182C85.0821 35.9537 85.1983 34.9045 84.2416 33.7706C84.812 33.5978 85.3938 33.5398 85.9868 33.5957C85.7697 34.9188 85.4207 36.2013 84.9397 37.4428C83.5083 39.2691 81.6469 40.4932 79.3551 41.115C78.7848 41.2878 78.2029 41.3459 77.6099 41.2899C74.3524 41.2899 71.0945 41.2899 67.8369 41.2899C67.8369 34.1788 67.8369 27.0673 67.8369 19.9561C71.0945 19.9561 74.3524 19.9561 77.6099 19.9561Z" fill="#179066"/>
<path fill-rule="evenodd" clip-rule="evenodd" d="M135.202 19.6064C136.831 19.6064 138.459 19.6064 140.088 19.6064C140.03 24.2708 140.088 28.9342 140.263 33.5958C141.583 37.0914 143.968 38.0822 147.418 36.5685C148.454 35.8341 149.093 34.8429 149.338 33.5958C149.512 28.9342 149.571 24.2708 149.512 19.6064C151.141 19.6064 152.77 19.6064 154.399 19.6064C154.457 24.6205 154.399 29.6336 154.224 34.645C152.932 39.4335 149.791 41.8817 144.8 41.9894C140.41 42.1422 137.385 40.1603 135.725 36.0439C135.224 30.5849 135.049 25.1056 135.202 19.6064Z" fill="#173D40"/>
<path fill-rule="evenodd" clip-rule="evenodd" d="M172.549 34.9947C172.606 34.1704 172.548 33.3544 172.374 32.5465C171.974 32.8816 171.625 32.7651 171.327 32.1968C170.281 33.657 169.292 35.1727 168.36 36.7434C167.527 37.3942 166.596 37.8604 165.568 38.1423C162.987 38.3514 161.591 37.1854 161.379 34.645C163.627 38.2101 166.012 38.327 168.535 34.9947C168.822 33.8119 168.764 32.6459 168.36 31.4973C167.853 30.908 167.388 30.3254 166.964 29.7487C167.887 29.6298 168.701 29.863 169.407 30.4481C169.612 30.375 169.786 30.2582 169.931 30.0984C169.753 29.4409 169.811 28.7998 170.105 28.1749C169.654 28.0035 169.188 27.9451 168.709 28C168.786 27.5891 168.669 27.2393 168.36 26.9508C167.484 26.5028 166.553 26.2695 165.568 26.2513C163.982 26.6507 162.47 27.2334 161.03 28C161.126 27.3177 160.893 26.7931 160.332 26.4262C159.384 26.0649 158.744 26.3562 158.413 27.3005C158.231 33.1317 158.289 38.9607 158.587 44.7873C159.169 44.7873 159.75 44.7873 160.332 44.7873C160.332 42.9221 160.332 41.0566 160.332 39.1915C161.313 39.3055 162.244 39.5968 163.125 40.0658C164.881 40.3558 166.627 40.2974 168.36 39.891C169.603 38.6861 170.592 37.2872 171.327 35.6942C171.66 35.0391 172.067 34.9226 172.549 35.3444C171.494 38.9596 169.051 40.9416 165.219 41.2899C163.987 41.1563 162.824 40.8066 161.728 40.2407C161.38 42.5608 161.264 44.8922 161.379 47.2354C160.1 47.2354 158.82 47.2354 157.54 47.2354C157.54 40.1242 157.54 33.0127 157.54 25.9016C158.82 25.9016 160.1 25.9016 161.379 25.9016C161.324 26.4958 161.382 27.0788 161.554 27.6503C162.536 26.2552 163.874 25.6722 165.568 25.9016C171.106 26.5231 173.433 29.5539 172.549 34.9947Z" fill="#1E3B3D"/>
<path fill-rule="evenodd" clip-rule="evenodd" d="M166.963 29.7487C167.387 30.3254 167.852 30.908 168.36 31.4973C168.763 32.6459 168.822 33.8119 168.534 34.9947C166.012 38.3269 163.626 38.2101 161.379 34.6449C161.39 30.9042 163.251 29.272 166.963 29.7487Z" fill="#E9E9E9"/>
</svg>
