<svg width="173" height="56" viewBox="0 0 173 56" fill="none" xmlns="http://www.w3.org/2000/svg">
<path fill-rule="evenodd" clip-rule="evenodd" d="M28.6908 0C28.947 0 29.2032 0 29.4594 0C29.4594 0.342295 29.4594 0.684616 29.4594 1.02691C29.2032 1.02691 28.947 1.02691 28.6908 1.02691C28.6908 0.684616 28.6908 0.342295 28.6908 0Z" fill="#495E57"/>
<path fill-rule="evenodd" clip-rule="evenodd" d="M37.9145 3.33747C37.2988 3.32412 36.701 3.40971 36.1209 3.5942C36.329 3.21088 36.6705 3.03971 37.1458 3.08074C37.4599 3.08575 37.7161 3.17134 37.9145 3.33747Z" fill="#234D36"/>
<path fill-rule="evenodd" clip-rule="evenodd" d="M22.7977 4.36439C22.7124 4.36439 22.6268 4.36439 22.5415 4.36439C22.1523 4.13082 21.7255 3.91686 21.2604 3.72257C21.4313 3.637 21.602 3.55141 21.7729 3.46584C20.9901 3.30302 20.2215 3.34582 19.4669 3.5942C19.4954 3.4357 19.5807 3.30734 19.7231 3.20911C20.4918 3.03795 21.2604 3.03795 22.0291 3.20911C22.4495 3.49896 22.7058 3.88405 22.7977 4.36439Z" fill="#659B76"/>
<path fill-rule="evenodd" clip-rule="evenodd" d="M22.5415 4.36439C22.6269 4.36439 22.7124 4.36439 22.7978 4.36439C22.9658 4.65234 23.0512 4.99463 23.054 5.3913C23.0691 6.06111 22.8982 6.66031 22.5415 7.1884C22.3707 7.1884 22.2 7.1884 22.0291 7.1884C21.8282 11.6829 21.6573 16.2185 21.5167 20.795C21.2605 20.795 21.0043 20.795 20.748 20.795C20.5953 16.3061 20.4244 11.856 20.2356 7.44513C20.1503 7.44513 20.0647 7.44513 19.9794 7.44513C19.8941 7.27389 19.8085 7.10291 19.7232 6.93167C20.1511 6.99611 20.5354 7.16735 20.8761 7.44513C20.9563 6.37791 21.17 5.35105 21.5167 4.36439C21.8582 4.36439 22.2 4.36439 22.5415 4.36439Z" fill="#56D386"/>
<path fill-rule="evenodd" clip-rule="evenodd" d="M19.467 3.5942C18.9996 4.45326 18.829 5.39458 18.9546 6.41821C18.6622 5.61208 18.6194 4.75633 18.8264 3.85093C18.9984 3.65777 19.2118 3.57217 19.467 3.5942Z" fill="#6A9677"/>
<path fill-rule="evenodd" clip-rule="evenodd" d="M28.1783 4.36439C28.0423 5.20631 27.5298 5.54868 26.641 5.3913C26.6233 6.05469 26.3246 6.56814 25.7443 6.93167C25.5664 7.97245 25.6092 8.99936 25.8724 10.0124C25.7143 9.98391 25.5862 9.89842 25.488 9.75568C24.6382 7.00843 25.5349 5.21134 28.1783 4.36439Z" fill="#59BB87"/>
<path fill-rule="evenodd" clip-rule="evenodd" d="M37.9144 3.33746C38.6575 3.31379 39.0846 3.65609 39.1955 4.36437C39.1935 5.14606 39.1081 5.91629 38.9393 6.67492C38.6831 6.67492 38.4269 6.67492 38.1707 6.67492C38.1707 6.93165 38.1707 7.18838 38.1707 7.44511C37.9152 12.8775 37.8296 18.3543 37.9144 23.8757C37.463 23.839 37.0359 23.9247 36.6334 24.1324C36.4625 18.5281 36.2918 12.9658 36.1209 7.44511C35.3771 6.98171 35.0356 6.29728 35.0961 5.39128C34.9887 4.48958 35.3302 3.89055 36.1209 3.59419C36.701 3.4097 37.2988 3.32411 37.9144 3.33746Z" fill="#3FB379"/>
<path fill-rule="evenodd" clip-rule="evenodd" d="M28.1783 4.36437C29.0858 4.28406 29.9398 4.36966 30.7405 4.6211C31.4356 5.27793 31.948 6.04825 32.2778 6.93165C32.2114 7.84765 31.699 8.18987 30.7405 7.95856C30.7405 8.30078 30.7405 8.64325 30.7405 8.98547C30.3887 8.94517 30.0469 8.98804 29.7156 9.11384C29.236 9.70251 28.8516 10.3443 28.5626 11.0393C28.3907 10.8462 28.1773 10.7605 27.9221 10.7826C27.2098 10.6041 26.5265 10.3474 25.8724 10.0124C25.6092 8.99934 25.5664 7.97242 25.7443 6.93165C26.3246 6.56812 26.6233 6.05466 26.641 5.39128C27.5298 5.54865 28.0423 5.20628 28.1783 4.36437Z" fill="#3FDA87"/>
<path fill-rule="evenodd" clip-rule="evenodd" d="M39.1956 4.36439C39.4861 4.99759 39.5289 5.68218 39.3237 6.41822C39.1208 6.96864 38.7365 7.31086 38.1707 7.44513C38.1707 7.1884 38.1707 6.93167 38.1707 6.67494C38.4269 6.67494 38.6832 6.67494 38.9394 6.67494C39.1082 5.91631 39.1935 5.14608 39.1956 4.36439Z" fill="#469A75"/>
<path fill-rule="evenodd" clip-rule="evenodd" d="M22.5415 4.3644C22.2 4.3644 21.8582 4.3644 21.5167 4.3644C21.17 5.35105 20.9563 6.37792 20.8761 7.44513C20.5354 7.16735 20.151 6.99612 19.7232 6.93168C19.5208 6.70037 19.2645 6.52913 18.9545 6.41822C18.829 5.3946 18.9996 4.45328 19.467 3.59421C20.2215 3.34583 20.9902 3.30303 21.7729 3.46585C21.602 3.55142 21.4314 3.63701 21.2605 3.72258C21.7255 3.91687 22.1523 4.13083 22.5415 4.3644Z" fill="#71E493"/>
<path fill-rule="evenodd" clip-rule="evenodd" d="M18.9546 6.41821C19.2646 6.52912 19.5208 6.70036 19.7232 6.93167C19.8085 7.10291 19.8941 7.27389 19.9794 7.44512C19.3817 7.35963 19.0399 7.01716 18.9546 6.41821Z" fill="#5A8A67"/>
<path fill-rule="evenodd" clip-rule="evenodd" d="M30.7404 4.62111C31.9242 4.92718 32.65 5.69731 32.9183 6.93166C33.2398 8.31773 32.9411 9.51588 32.0215 10.5258C32.495 9.31461 32.5806 8.11646 32.2777 6.93166C31.948 6.04826 31.4356 5.27794 30.7404 4.62111Z" fill="#4BA279"/>
<path fill-rule="evenodd" clip-rule="evenodd" d="M14.3427 9.75568C14.1718 9.75568 14.0011 9.75568 13.8302 9.75568C13.2832 9.27585 12.5999 9.10461 11.7805 9.24222C12.4784 8.61632 13.2471 8.57344 14.0864 9.11386C14.2791 9.28612 14.3647 9.49997 14.3427 9.75568Z" fill="#3E7A5A"/>
<path fill-rule="evenodd" clip-rule="evenodd" d="M16.3924 8.21529C17.3245 8.01941 17.7088 8.36163 17.5454 9.24221C16.6053 9.62961 16.221 9.28739 16.3924 8.21529Z" fill="#346855"/>
<path fill-rule="evenodd" clip-rule="evenodd" d="M40.4767 8.2153C40.9038 8.2153 41.3306 8.2153 41.7577 8.2153C41.9286 9.24221 41.5015 9.67018 40.4767 9.49894C40.4767 9.07098 40.4767 8.64327 40.4767 8.2153Z" fill="#306452"/>
<path fill-rule="evenodd" clip-rule="evenodd" d="M46.3696 9.24223C44.6196 8.85713 43.851 9.54183 44.0636 11.296C43.4257 9.58111 44.0237 8.76805 45.8571 8.85713C46.0918 8.9285 46.2625 9.05687 46.3696 9.24223Z" fill="#396E58"/>
<path fill-rule="evenodd" clip-rule="evenodd" d="M11.7805 9.24221C12.5999 9.1046 13.2832 9.27584 13.8302 9.75567C13.8302 10.3546 13.8302 10.9538 13.8302 11.5528C13.1592 11.6216 12.5187 11.5361 11.9086 11.296C11.7813 10.6167 11.7385 9.93204 11.7805 9.24221Z" fill="#3BCB7C"/>
<path fill-rule="evenodd" clip-rule="evenodd" d="M11.7805 9.24221C11.7385 9.93204 11.7812 10.6167 11.9086 11.296C12.5186 11.5361 13.1592 11.6216 13.8302 11.5528C13.8302 10.9538 13.8302 10.3546 13.8302 9.75567C14.0011 9.75567 14.1717 9.75567 14.3426 9.75567C14.697 11.7494 13.9283 12.5196 12.0367 12.0662C11.1612 11.1389 11.0759 10.1975 11.7805 9.24221Z" fill="#50AF7E"/>
<path fill-rule="evenodd" clip-rule="evenodd" d="M46.3696 9.24221C47.3896 10.0794 47.3896 10.9351 46.3696 11.8095C45.5831 11.8434 44.8144 11.7579 44.0637 11.5528C44.0637 11.4673 44.0637 11.3815 44.0637 11.296C43.851 9.54181 44.6197 8.85711 46.3696 9.24221Z" fill="#268D64"/>
<path fill-rule="evenodd" clip-rule="evenodd" d="M44.0636 11.5528C44.8144 11.7579 45.583 11.8434 46.3696 11.8095C46.1615 12.1928 45.82 12.364 45.3447 12.323C44.719 12.3779 44.2922 12.1212 44.0636 11.5528Z" fill="#2E604B"/>
<path fill-rule="evenodd" clip-rule="evenodd" d="M26.1285 14.6335C26.2213 12.9637 25.5807 12.5358 24.2069 13.3499C24.0804 13.7694 24.0378 14.1973 24.0788 14.6335C23.5269 13.5031 23.8685 12.8187 25.1037 12.5797C26.3389 12.8187 26.6804 13.5031 26.1285 14.6335Z" fill="#437459"/>
<path fill-rule="evenodd" clip-rule="evenodd" d="M26.1286 14.6335C25.4357 14.9452 24.7524 14.9452 24.0788 14.6335C24.0378 14.1973 24.0804 13.7694 24.2069 13.3499C25.5808 12.5358 26.2213 12.9638 26.1286 14.6335Z" fill="#5DBB89"/>
<path fill-rule="evenodd" clip-rule="evenodd" d="M24.8475 13.0931C25.5096 13.2338 25.7658 13.6618 25.6162 14.3768C25.2746 14.3768 24.9328 14.3768 24.5913 14.3768C24.557 13.9167 24.6423 13.489 24.8475 13.0931Z" fill="#37CE80"/>
<path fill-rule="evenodd" clip-rule="evenodd" d="M32.2777 6.93166C32.5806 8.11646 32.495 9.31461 32.0215 10.5259C31.9362 10.5259 31.8506 10.5259 31.7653 10.5259C30.9766 10.5482 30.3789 10.8904 29.9718 11.5528C29.7179 13.2161 29.6325 14.9277 29.7156 16.6873C29.4593 16.6873 29.2031 16.6873 28.9469 16.6873C29.0271 17.3926 28.9418 18.0773 28.6907 18.7411C28.4775 16.264 28.3494 13.7822 28.3064 11.296C28.1227 11.1564 27.9946 10.9851 27.922 10.7826C28.1772 10.7605 28.3907 10.8463 28.5626 11.0393C28.8516 10.3443 29.2359 9.70253 29.7156 9.11385C30.0468 8.98805 30.3886 8.94518 30.7404 8.98549C30.7404 8.64327 30.7404 8.30079 30.7404 7.95858C31.6989 8.18989 32.2113 7.84767 32.2777 6.93166Z" fill="#29BF75"/>
<path fill-rule="evenodd" clip-rule="evenodd" d="M32.2777 12.5797C34.3239 12.4508 34.8363 13.2639 33.815 15.0186C33.2824 15.226 32.7699 15.1832 32.2777 14.8902C31.9383 14.1121 31.9383 13.3419 32.2777 12.5797Z" fill="#257B61"/>
<path fill-rule="evenodd" clip-rule="evenodd" d="M42.2701 16.6873C42.2701 16.0884 42.2701 15.4892 42.2701 14.8902C40.6234 14.444 39.9401 15.043 40.2204 16.6873C39.6163 14.4597 40.3849 13.8605 42.5263 14.8902C42.9307 15.5962 42.8453 16.1952 42.2701 16.6873Z" fill="#2F6A56"/>
<path fill-rule="evenodd" clip-rule="evenodd" d="M8.96209 18.2277C9.21908 16.3882 8.45043 15.6609 6.65615 16.0455C6.21469 16.2445 5.95848 16.5867 5.88751 17.0724C6.08915 17.6113 6.17447 18.1676 6.14372 18.7411C5.98564 18.7126 5.85753 18.6272 5.7594 18.4844C5.10349 16.2344 5.91492 15.2502 8.19345 15.532C9.52167 16.198 9.77788 17.0965 8.96209 18.2277Z" fill="#579B7A"/>
<path fill-rule="evenodd" clip-rule="evenodd" d="M42.2701 16.6873C41.5688 17.6855 40.8855 17.6855 40.2204 16.6873C39.9401 15.043 40.6234 14.4441 42.2701 14.8902C42.2701 15.4892 42.2701 16.0884 42.2701 16.6873Z" fill="#147C56"/>
<path fill-rule="evenodd" clip-rule="evenodd" d="M16.3924 14.3768C18.0655 14.3108 18.6207 15.081 18.0578 16.6873C17.3083 17.3443 16.5397 17.3443 15.7518 16.6873C15.439 15.7164 15.6527 14.9462 16.3924 14.3768Z" fill="#4AA57D"/>
<path fill-rule="evenodd" clip-rule="evenodd" d="M16.6486 14.8902C16.9873 14.8466 17.2863 14.9321 17.5453 15.1469C17.6721 15.6535 17.7149 16.1669 17.6734 16.6873C17.161 16.6873 16.6486 16.6873 16.1361 16.6873C16.0505 15.9972 16.2212 15.3983 16.6486 14.8902Z" fill="#2ABE7A"/>
<path fill-rule="evenodd" clip-rule="evenodd" d="M49.7004 15.4037C52.3495 15.4525 53.0328 16.6077 51.7502 18.8695C49.5931 19.7016 48.611 18.9742 48.8037 16.6873C48.9823 16.1523 49.2813 15.7243 49.7004 15.4037Z" fill="#388767"/>
<path fill-rule="evenodd" clip-rule="evenodd" d="M49.7004 15.9171C51.3273 15.6668 51.9679 16.3515 51.622 17.971C50.7803 18.9832 50.0117 18.8975 49.316 17.7142C49.16 17.0557 49.2881 16.4565 49.7004 15.9171Z" fill="#17A168"/>
<path fill-rule="evenodd" clip-rule="evenodd" d="M14.3427 17.971C13.6035 17.8924 12.9201 17.9779 12.2929 18.2277C12.122 18.2277 11.9514 18.2277 11.7805 18.2277C11.8089 18.0693 11.8943 17.9409 12.0367 17.8426C12.8556 17.6359 13.6242 17.6788 14.3427 17.971Z" fill="#437B60"/>
<path fill-rule="evenodd" clip-rule="evenodd" d="M36.3772 3.85094C36.9163 3.7742 37.4287 3.85977 37.9145 4.10767C37.2934 4.67596 37.4643 4.93269 38.4269 4.87785C38.4269 5.13458 38.4269 5.39131 38.4269 5.64804C37.7923 5.53276 37.2799 5.70375 36.8897 6.16149C37.0267 6.61616 37.2404 6.70165 37.5302 6.41822C37.7231 11.2149 37.6803 16.0073 37.4021 20.795C37.1459 20.795 36.8897 20.795 36.6334 20.795C36.7188 16.1708 36.6334 11.5497 36.3772 6.93167C35.8504 6.64209 35.5942 6.17125 35.6086 5.51967C35.625 4.82191 35.8812 4.26568 36.3772 3.85094Z" fill="#3EC97B"/>
<path fill-rule="evenodd" clip-rule="evenodd" d="M8.96215 18.2277C8.38284 18.4208 7.82788 18.6775 7.29674 18.9979C6.90397 18.9278 6.51964 18.8423 6.14377 18.7412C6.17452 18.1676 6.0892 17.6113 5.88756 17.0724C5.95853 16.5867 6.21475 16.2445 6.65621 16.0455C8.45048 15.6609 9.21913 16.3882 8.96215 18.2277Z" fill="#3FC684"/>
<path fill-rule="evenodd" clip-rule="evenodd" d="M25.8723 10.0124C26.5264 10.3474 27.2098 10.6041 27.9221 10.7826C27.9946 10.9851 28.1227 11.1564 28.3064 11.296C28.3494 13.7822 28.4775 16.264 28.6907 18.7411C28.9418 18.0772 29.0271 17.3925 28.9469 16.6873C29.2031 16.6873 29.4593 16.6873 29.7156 16.6873C29.6326 14.9277 29.7179 13.2161 29.9718 11.5528C30.0802 15.7585 29.9521 19.9516 29.5875 24.1324C29.5021 23.7045 29.4166 23.2767 29.3312 22.8488C29.2039 23.5281 29.1611 24.2128 29.2031 24.9026C28.9469 24.9026 28.6907 24.9026 28.4345 24.9026C28.4248 20.3588 28.1685 15.9089 27.6658 11.5528C26.85 11.2791 26.252 10.7656 25.8723 10.0124Z" fill="#22AB70"/>
<path fill-rule="evenodd" clip-rule="evenodd" d="M8.96212 18.2277C8.94316 18.7183 8.68694 19.0179 8.19347 19.1263C7.59572 19.2975 6.99771 19.2975 6.39996 19.1263C6.25751 19.0279 6.17219 18.8996 6.14375 18.7412C6.51961 18.8423 6.90394 18.9278 7.29672 18.9979C7.82785 18.6775 8.38281 18.4208 8.96212 18.2277Z" fill="#529274"/>
<path fill-rule="evenodd" clip-rule="evenodd" d="M14.3427 17.971C15.9435 19.2182 16.0288 20.5873 14.5989 22.0786C14.3445 24.3425 14.2589 26.653 14.3427 29.0103C14.1687 26.7678 13.9978 24.5001 13.8303 22.207C13.7449 22.1641 13.6594 22.1215 13.574 22.0786C13.4031 24.087 13.2325 26.0553 13.0616 27.9834C13.1041 25.9278 13.0616 23.8739 12.9335 21.8219C11.9353 21.6468 11.551 21.0479 11.7805 20.0248C11.7342 19.3411 11.9048 18.7419 12.293 18.2277C12.9202 17.9779 13.6035 17.8924 14.3427 17.971Z" fill="#3DBE83"/>
<path fill-rule="evenodd" clip-rule="evenodd" d="M43.5513 18.2277C44.549 18.1276 45.4883 18.2988 46.3697 18.7412C46.8265 19.5832 46.6559 20.225 45.8572 20.6666C46.1414 21.1321 45.9705 21.3459 45.3448 21.3084C45.3858 20.8723 45.3433 20.4443 45.2167 20.0248C45.104 20.4294 44.8905 20.7719 44.5761 21.0517C44.7412 22.4083 44.8265 23.7776 44.8324 25.1594C44.8695 26.5719 44.7414 27.9413 44.448 29.267C44.4852 26.6864 44.2718 24.2046 43.8075 21.8219C43.6863 21.4609 43.4301 21.2897 43.0389 21.3084C42.7621 20.4759 42.7194 19.6202 42.9107 18.7412C43.0176 18.4187 43.231 18.2475 43.5513 18.2277Z" fill="#1DA16E"/>
<path fill-rule="evenodd" clip-rule="evenodd" d="M22.0291 7.18839C22.0291 12.4084 22.0291 17.6287 22.0291 22.8488C21.7729 22.8488 21.5167 22.8488 21.2605 22.8488C21.2628 23.313 21.1347 23.7409 20.8761 24.1324C20.6209 23.2572 20.4075 22.4016 20.2356 21.5652C20.2356 16.8586 20.2356 12.1517 20.2356 7.44511C20.4244 11.856 20.5953 16.3061 20.748 20.795C21.0042 20.795 21.2605 20.795 21.5167 20.795C21.6573 16.2185 21.8282 11.6829 22.0291 7.18839Z" fill="#3FAA77"/>
<path fill-rule="evenodd" clip-rule="evenodd" d="M24.5912 20.2815C26.4209 20.3123 26.848 21.1254 25.8723 22.7205C24.3345 22.9754 23.7795 22.3336 24.2069 20.795C24.3906 20.6553 24.5187 20.4841 24.5912 20.2815Z" fill="#267759"/>
<path fill-rule="evenodd" clip-rule="evenodd" d="M32.0216 20.2815C34.0175 20.0905 34.5299 20.8607 33.5589 22.592C32.9591 22.9032 32.4041 22.8175 31.8935 22.3353C31.7392 21.6368 31.782 20.9523 32.0216 20.2815Z" fill="#266F58"/>
<path fill-rule="evenodd" clip-rule="evenodd" d="M1.27565 22.0786C0.567983 23.0475 0.311768 24.1599 0.507004 25.4161C-0.123286 24.5409 -0.165818 23.5997 0.378896 22.5921C0.587968 22.2524 0.886972 22.0815 1.27565 22.0786Z" fill="#468A65"/>
<path fill-rule="evenodd" clip-rule="evenodd" d="M5.63136 23.3622C5.63136 23.5335 5.71668 23.619 5.88758 23.619C6.14174 24.0107 6.52607 24.182 7.04055 24.1324C7.86351 23.8862 8.67469 23.8862 9.4746 24.1324C9.08848 24.3607 8.74695 24.6174 8.44974 24.9026C7.33955 24.9026 6.22911 24.9026 5.11893 24.9026C4.59241 26.3901 3.56754 26.8181 2.04434 26.1863C1.72766 25.9662 1.38612 25.7953 1.01948 25.6728C0.317704 22.9959 1.34257 21.7551 4.09407 21.9502C4.57447 22.4845 5.0869 22.9551 5.63136 23.3622Z" fill="#44D788"/>
<path fill-rule="evenodd" clip-rule="evenodd" d="M10.2432 24.9026C9.6014 25.1381 9.00365 25.1381 8.44971 24.9026C8.74692 24.6174 9.08846 24.3607 9.47458 24.1325C8.67467 23.8863 7.86349 23.8863 7.04053 24.1325C6.52605 24.182 6.14172 24.0108 5.88756 23.619C7.18375 23.5143 8.46483 23.3859 9.73079 23.2339C10.4487 23.6783 10.6196 24.2346 10.2432 24.9026Z" fill="#46B180"/>
<path fill-rule="evenodd" clip-rule="evenodd" d="M39.9643 23.3623C41.2456 23.1494 41.8008 23.6629 41.6297 24.9026C40.0114 25.6358 39.4564 25.1224 39.9643 23.3623Z" fill="#296D54"/>
<path fill-rule="evenodd" clip-rule="evenodd" d="M57.6431 22.8488C57.6851 23.5386 57.6423 24.2233 57.515 24.9026C57.2017 25.5406 56.8173 25.5835 56.362 25.031C57.0097 24.8592 57.0097 24.6454 56.362 24.3892C56.0425 24.7758 56.0425 25.1609 56.362 25.5444C56.1911 25.8867 56.0205 26.2291 55.8496 26.5714C54.8419 26.7983 53.9026 26.6699 53.0312 26.1863C52.8029 25.9909 52.632 25.7342 52.5188 25.4161C51.3458 25.1111 50.1929 25.1966 49.0599 25.6728C47.8698 25.519 47.4427 24.8343 47.7788 23.619C47.9069 23.4906 48.035 23.3623 48.1631 23.2339C49.5677 23.494 51.0194 23.6223 52.5188 23.619C52.5839 22.6755 53.0107 21.9479 53.7999 21.4368C54.8488 21.2399 55.8737 21.3254 56.8745 21.6935C57.2949 21.9834 57.5511 22.3685 57.6431 22.8488Z" fill="#18825D"/>
<path fill-rule="evenodd" clip-rule="evenodd" d="M54.3123 21.8219C54.9162 21.7801 55.514 21.8227 56.1058 21.9503C56.2521 22.2596 56.423 22.5592 56.6183 22.8488C56.7684 22.7952 56.8965 22.7094 57.0026 22.5921C57.1735 22.9343 57.1735 23.2768 57.0026 23.619C56.5166 23.2298 55.9613 23.0586 55.3372 23.1055C55.4635 23.6976 55.5488 24.2965 55.5934 24.9026C55.1581 24.8616 54.731 24.9042 54.3123 25.031C54.5949 25.4623 54.5096 25.8474 54.0561 26.1863C53.629 25.8441 53.2022 25.5016 52.775 25.1594C51.4906 25.0364 50.2523 24.7797 49.0599 24.3892C48.878 24.7673 48.5793 24.9386 48.1632 24.9026C48.1632 24.4747 48.1632 24.047 48.1632 23.619C49.5995 23.9422 51.0512 24.0706 52.5188 24.0041C53.082 23.228 53.6797 22.5007 54.3123 21.8219Z" fill="#069867"/>
<path fill-rule="evenodd" clip-rule="evenodd" d="M16.6486 23.3623C18.3511 23.228 18.778 23.8698 17.9297 25.2877C16.4654 25.3907 16.0385 24.7489 16.6486 23.3623Z" fill="#27765C"/>
<path fill-rule="evenodd" clip-rule="evenodd" d="M14.5989 22.0786C14.5563 24.2197 14.5989 26.3591 14.727 28.4968C14.9107 28.6365 15.0388 28.8077 15.1113 29.0103C14.8551 29.0103 14.5989 29.0103 14.3427 29.0103C14.2589 26.653 14.3444 24.3425 14.5989 22.0786Z" fill="#3E534B"/>
<path fill-rule="evenodd" clip-rule="evenodd" d="M24.5913 25.6728C26.0648 25.222 26.4919 25.7354 25.8724 27.2132C26.1478 26.0738 25.7207 25.5604 24.5913 25.6728Z" fill="#4A805B"/>
<path fill-rule="evenodd" clip-rule="evenodd" d="M57.6431 22.8488C58.3528 24.1317 58.1822 25.3725 57.1307 26.5714C55.9672 27.2643 54.7714 27.3498 53.5437 26.8281C53.3179 26.6463 53.1473 26.4322 53.0312 26.1863C53.9026 26.67 54.8419 26.7983 55.8496 26.5714C56.0205 26.2292 56.1911 25.8867 56.362 25.5445C56.0425 25.1609 56.0425 24.7758 56.362 24.3892C57.0097 24.6454 57.0097 24.8593 56.362 25.031C56.8173 25.5835 57.2016 25.5406 57.515 24.9026C57.6423 24.2233 57.6851 23.5386 57.6431 22.8488Z" fill="#256E54"/>
<path fill-rule="evenodd" clip-rule="evenodd" d="M32.534 25.4161C34.0359 25.4577 34.3775 26.0995 33.5589 27.3415C31.9452 27.4686 31.6034 26.8268 32.534 25.4161Z" fill="#216D58"/>
<path fill-rule="evenodd" clip-rule="evenodd" d="M43.0388 21.3084C43.43 21.2897 43.6862 21.4609 43.8074 21.8219C43.8499 24.134 43.8074 26.4445 43.6793 28.7535C43.5812 28.8963 43.4531 28.9818 43.295 29.0103C43.2097 29.0103 43.1241 29.0103 43.0388 29.0103C43.1113 28.8077 43.2394 28.6365 43.4231 28.4968C43.594 26.2717 43.594 24.0469 43.4231 21.8219C43.2394 21.6822 43.1113 21.511 43.0388 21.3084Z" fill="#174434"/>
<path fill-rule="evenodd" clip-rule="evenodd" d="M36.121 7.4451C36.2919 12.9658 36.4625 18.528 36.6334 24.1324C37.036 23.9247 37.4631 23.839 37.9145 23.8757C37.8297 18.3542 37.9153 12.8775 38.1707 7.4451C38.0109 13.4615 38.1815 19.4518 38.6832 25.4161C38.3993 27.0216 37.5451 27.4493 36.121 26.6997C35.5076 25.8669 35.4651 25.0112 35.9929 24.1324C36.121 18.5707 36.1638 13.0081 36.121 7.4451Z" fill="#2A6652"/>
<path fill-rule="evenodd" clip-rule="evenodd" d="M11.7805 18.2277C11.9514 18.2277 12.122 18.2277 12.2929 18.2277C11.9048 18.7419 11.7341 19.3411 11.7805 20.0248C11.5509 21.0479 11.9353 21.6468 12.9335 21.8219C13.0616 23.8739 13.1041 25.9278 13.0616 27.9834C12.9363 28.3672 12.7657 28.7097 12.5492 29.0103C12.4638 29.0103 12.3783 29.0103 12.2929 29.0103C12.8594 26.7359 12.9448 24.4254 12.5492 22.0786C11.1246 21.4014 10.655 20.289 11.14 18.7412C11.2468 18.4187 11.4602 18.2475 11.7805 18.2277Z" fill="#4B9D7A"/>
<path fill-rule="evenodd" clip-rule="evenodd" d="M22.0291 7.18839C22.2 7.18839 22.3707 7.18839 22.5416 7.18839C22.2876 14.4433 22.2021 21.7174 22.2853 29.0103C22.2 29.0103 22.1144 29.0103 22.0291 29.0103C22.0291 26.9564 22.0291 24.9026 22.0291 22.8488C22.0291 17.6287 22.0291 12.4084 22.0291 7.18839Z" fill="#183C2E"/>
<path fill-rule="evenodd" clip-rule="evenodd" d="M24.5913 25.6728C24.3159 26.8121 24.743 27.3256 25.8724 27.2132C25.3446 27.5497 24.7896 27.5497 24.207 27.2132C24.1642 26.9564 24.1216 26.6997 24.0789 26.443C24.1147 26.0502 24.2856 25.7935 24.5913 25.6728Z" fill="#519F6C"/>
<path fill-rule="evenodd" clip-rule="evenodd" d="M24.5913 25.6728C25.7207 25.5603 26.1478 26.0738 25.8723 27.2132C24.7429 27.3256 24.3158 26.8121 24.5913 25.6728Z" fill="#51CC76"/>
<path fill-rule="evenodd" clip-rule="evenodd" d="M5.63134 23.3622C5.08688 22.9551 4.57445 22.4845 4.09405 21.9502C1.34255 21.7551 0.317684 22.9959 1.01946 25.6728C1.3861 25.7953 1.72764 25.9662 2.04432 26.1863C3.56752 26.8181 4.59238 26.3901 5.11891 24.9026C6.22909 24.9026 7.33953 24.9026 8.44971 24.9026C9.00365 25.138 9.6014 25.138 10.2432 24.9026C10.2432 25.1593 10.2432 25.4161 10.2432 25.6728C8.70721 25.4569 7.16991 25.3285 5.63134 25.2877C4.70614 27.0227 3.33975 27.5361 1.53189 26.8281C1.02868 26.4556 0.687147 25.985 0.507027 25.4161C0.311791 24.1599 0.568006 23.0475 1.27567 22.0786C1.41864 21.7474 1.67486 21.5336 2.04432 21.4368C3.81144 21.0278 5.0072 21.6696 5.63134 23.3622Z" fill="#56AF85"/>
<path fill-rule="evenodd" clip-rule="evenodd" d="M20.2356 21.5652C20.4075 22.4016 20.6209 23.2573 20.8761 24.1324C21.1347 23.7409 21.2628 23.313 21.2605 22.8488C21.5167 22.8488 21.7729 22.8488 22.0291 22.8488C22.0291 24.9026 22.0291 26.9564 22.0291 29.0103C21.4314 29.0103 20.8333 29.0103 20.2356 29.0103C20.2356 26.5285 20.2356 24.047 20.2356 21.5652Z" fill="#11885F"/>
<path fill-rule="evenodd" clip-rule="evenodd" d="M45.601 28.4968C45.8057 29.249 45.891 30.0192 45.8572 30.8074C45.0481 31.1606 44.1941 31.3316 43.295 31.3208C43.295 30.5506 43.295 29.7805 43.295 29.0103C43.4531 28.9818 43.5812 28.8963 43.6794 28.7535C43.8075 26.4445 43.85 24.134 43.8075 21.8219C44.2717 24.2046 44.4852 26.6864 44.448 29.267C44.7414 27.9413 44.8695 26.5719 44.8323 25.1593C44.8264 23.7776 44.7411 22.4083 44.5761 21.0517C44.8905 20.7719 45.1039 20.4294 45.2167 20.0248C45.3432 20.4443 45.3858 20.8722 45.3448 21.3084C45.9704 21.3459 46.1413 21.1321 45.8572 20.6666C46.6558 20.225 46.8265 19.5832 46.3696 18.7411C45.4882 18.2988 44.549 18.1276 43.5513 18.2277C43.5797 18.0693 43.665 17.9409 43.8075 17.8426C46.2835 17.3289 47.3509 18.3132 47.0102 20.795C46.786 21.492 46.3163 21.8342 45.601 21.8219C45.601 24.0469 45.601 26.2717 45.601 28.4968Z" fill="#1E8B64"/>
<path fill-rule="evenodd" clip-rule="evenodd" d="M43.0388 29.0103C43.1241 29.0103 43.2097 29.0103 43.295 29.0103C43.295 29.7804 43.295 30.5506 43.295 31.3208C40.151 31.4474 36.9911 31.7041 33.8151 32.091C33.8151 32.4332 33.8151 32.7757 33.8151 33.1179C33.4763 33.0743 33.1773 33.1598 32.9183 33.3746C32.6582 34.1597 32.3595 34.9299 32.0215 35.6852C31.6357 36.0053 31.2514 36.0053 30.8686 35.6852C31.1832 36.4782 31.0123 37.1627 30.3561 37.739C30.0869 35.7971 30.215 33.9145 30.7405 32.091C30.7405 32.0055 30.7405 31.9198 30.7405 31.8343C31.5829 31.0772 32.4369 30.307 33.3026 29.5237C33.4981 29.3265 33.7543 29.1982 34.0713 29.1386C37.0593 29.0103 40.0485 28.9674 43.0388 29.0103Z" fill="#12A06E"/>
<path fill-rule="evenodd" clip-rule="evenodd" d="M14.3426 29.0103C16.4677 29.4336 18.6883 29.6904 21.0042 29.7805C20.1177 30.1997 19.2635 30.6703 18.4421 31.1925C16.7339 31.3637 15.026 31.3637 13.3178 31.1925C12.6952 30.6007 12.4389 29.8734 12.5491 29.0103C12.7656 28.7097 12.9363 28.3672 13.0615 27.9834C13.2324 26.0554 13.4031 24.087 13.574 22.0786C13.6593 22.1215 13.7449 22.1641 13.8302 22.207C13.9978 24.5001 14.1687 26.7678 14.3426 29.0103Z" fill="#22C07F"/>
<path fill-rule="evenodd" clip-rule="evenodd" d="M12.2929 29.0103C12.3783 29.0103 12.4638 29.0103 12.5492 29.0103C12.439 29.8734 12.6952 30.6007 13.3178 31.1925C15.026 31.3637 16.7339 31.3637 18.4421 31.1925C19.2635 30.6703 20.1178 30.1997 21.0043 29.7805C18.6883 29.6903 16.4677 29.4336 14.3427 29.0103C14.5989 29.0103 14.8551 29.0103 15.1113 29.0103C16.8195 29.0103 18.5274 29.0103 20.2356 29.0103C20.8334 29.0103 21.4314 29.0103 22.0291 29.0103C22.1144 29.0103 22.2 29.0103 22.2853 29.0103C23.4914 28.8996 24.5162 29.2418 25.3599 30.0372C25.5003 30.5234 25.7566 30.9511 26.1286 31.3208C25.8724 31.4921 25.6161 31.663 25.3599 31.8343C24.4324 32.0379 23.4929 32.0379 22.5416 31.8343C19.426 31.6209 16.2661 31.4926 13.0616 31.4492C12.4136 30.7709 12.1574 29.9581 12.2929 29.0103Z" fill="#20B47B"/>
<path fill-rule="evenodd" clip-rule="evenodd" d="M33.3026 29.5238C32.4369 30.307 31.5829 31.0772 30.7404 31.8343C31.2741 30.7001 32.1281 29.9299 33.3026 29.5238Z" fill="#39755F"/>
<path fill-rule="evenodd" clip-rule="evenodd" d="M4.60645 33.1179C4.86216 31.663 4.26415 31.0638 2.81294 31.3208C2.75504 32.0266 2.84036 32.7113 3.06916 33.3746C3.3738 33.6131 3.71533 33.6986 4.09402 33.6314C3.06737 34.1438 2.42683 33.8013 2.1724 32.6045C1.79551 31.4407 2.22262 30.8415 3.45348 30.8074C3.87035 30.8395 4.25467 30.9678 4.60645 31.1925C4.94312 31.8612 4.94312 32.5031 4.60645 33.1179Z" fill="#337A62"/>
<path fill-rule="evenodd" clip-rule="evenodd" d="M43.0388 36.1986C44.3585 35.9863 45.7249 35.858 47.1382 35.8135C47.7844 35.4693 48.4677 35.2554 49.1879 35.1717C49.1879 34.7438 49.1879 34.316 49.1879 33.8881C49.4441 33.8881 49.7004 33.8881 49.9566 33.8881C49.881 32.1613 49.9663 30.45 50.2128 28.7535C49.8236 28.0953 49.4393 28.0953 49.0598 28.7535C48.9745 30.4651 48.8889 32.1765 48.8036 33.8881C48.5143 34.3094 48.13 34.5661 47.6506 34.6583C47.81 34.3689 48.0234 34.1122 48.2912 33.8881C48.3506 31.8535 48.3934 29.8423 48.4193 27.855C48.9317 27.6837 49.4441 27.6837 49.9566 27.855C50.2446 28.0704 50.4155 28.37 50.469 28.7535C50.2827 30.631 50.1546 32.5138 50.0847 34.4015C49.7923 34.943 49.408 35.4136 48.9317 35.8135C46.9858 36.1617 45.0214 36.29 43.0388 36.1986Z" fill="#234E47"/>
<path fill-rule="evenodd" clip-rule="evenodd" d="M55.5934 33.1179C55.5488 32.5118 55.4635 31.9128 55.3372 31.3208C54.7394 31.3208 54.1414 31.3208 53.5437 31.3208C53.2285 32.8573 53.8265 33.542 55.3372 33.3746C54.8706 33.9797 54.2726 34.0655 53.5437 33.6314C52.9849 32.922 52.8993 32.1518 53.2874 31.3208C54.0138 30.6885 54.7825 30.6456 55.5934 31.1924C55.9301 31.8612 55.9301 32.503 55.5934 33.1179Z" fill="#2B6553"/>
<path fill-rule="evenodd" clip-rule="evenodd" d="M12.2929 29.0103C12.1574 29.9581 12.4136 30.7709 13.0616 31.4492C16.2661 31.4926 19.426 31.621 22.5415 31.8343C22.5415 31.9198 22.5415 32.0055 22.5415 32.091C19.4657 32.1339 16.3911 32.091 13.3178 31.9627C12.1041 31.2572 11.7626 30.2729 12.2929 29.0103Z" fill="#358364"/>
<path fill-rule="evenodd" clip-rule="evenodd" d="M25.3599 30.0372C25.755 30.2428 26.1819 30.3283 26.641 30.2939C26.641 30.5506 26.641 30.8074 26.641 31.0641C26.9454 31.6746 27.2016 32.3164 27.4097 32.9896C27.1511 33.4761 27.1086 33.9466 27.2816 34.4016C27.0917 34.6945 26.878 34.6945 26.641 34.4016C26.4409 34.7171 26.3128 35.0593 26.2567 35.4285C25.9057 34.7738 25.6067 34.0891 25.3599 33.3747C25.1486 33.1472 24.8923 33.0617 24.5913 33.1179C23.8388 32.8684 23.1557 32.5262 22.5416 32.091C22.5416 32.0055 22.5416 31.9198 22.5416 31.8343C23.4929 32.0379 24.4324 32.0379 25.3599 31.8343C25.6162 31.663 25.8724 31.4921 26.1286 31.3208C25.7566 30.9511 25.5003 30.5234 25.3599 30.0372Z" fill="#189E6D"/>
<path fill-rule="evenodd" clip-rule="evenodd" d="M45.601 28.4968C46.3266 28.9864 46.5403 29.6708 46.2415 30.5506C45.9425 31.1924 45.4729 31.663 44.8323 31.9626C41.6724 32.0481 38.5123 32.1339 35.3524 32.2194C34.7907 32.4571 34.2783 32.7567 33.8151 33.1179C33.8151 32.7757 33.8151 32.4332 33.8151 32.091C36.9911 31.7041 40.151 31.4474 43.295 31.3208C44.1941 31.3316 45.0481 31.1606 45.8572 30.8074C45.891 30.0192 45.8057 29.249 45.601 28.4968Z" fill="#27735B"/>
<path fill-rule="evenodd" clip-rule="evenodd" d="M4.60643 33.1179C4.35021 33.2034 4.17932 33.3746 4.094 33.6314C3.71531 33.6986 3.37378 33.6131 3.06914 33.3746C2.84034 32.7113 2.75502 32.0266 2.81292 31.3208C4.26413 31.0638 4.86213 31.663 4.60643 33.1179Z" fill="#1B9268"/>
<path fill-rule="evenodd" clip-rule="evenodd" d="M55.5933 33.1179C55.4224 33.1179 55.3371 33.2034 55.3371 33.3747C53.8264 33.542 53.2284 32.8574 53.5436 31.3208C54.1413 31.3208 54.7393 31.3208 55.3371 31.3208C55.4634 31.9129 55.5487 32.5118 55.5933 33.1179Z" fill="#087756"/>
<path fill-rule="evenodd" clip-rule="evenodd" d="M31.7653 10.5258C31.5247 11.2295 31.0548 11.743 30.3561 12.0662C30.228 17.7135 30.1852 23.3615 30.228 29.0103C30.0169 29.9889 29.8888 31.0158 29.8437 32.091C29.7583 32.0055 29.6728 31.9198 29.5874 31.8343C29.3384 32.2977 29.0394 32.7256 28.6907 33.1179C28.4778 34.9088 28.3497 36.7059 28.3064 38.5092C28.0402 38.3182 27.9121 38.0615 27.922 37.739C28.0924 36.9306 28.1778 36.0749 28.1783 35.1717C28.1411 34.0989 27.9702 33.072 27.6658 32.091C28.0058 25.27 28.0058 18.4238 27.6658 11.5528C28.1685 15.9089 28.4247 20.3588 28.4345 24.9026C28.6907 24.9026 28.9469 24.9026 29.2031 24.9026C29.1611 24.2128 29.2039 23.5281 29.3312 22.8488C29.4166 23.2768 29.5021 23.7045 29.5874 24.1324C29.952 19.9516 30.0802 15.7585 29.9718 11.5528C30.3789 10.8904 30.9767 10.5482 31.7653 10.5258Z" fill="#1E795C"/>
<path fill-rule="evenodd" clip-rule="evenodd" d="M9.47457 33.1179C9.66341 33.5813 9.91962 34.009 10.2432 34.4016C14.0165 34.7944 17.7744 34.7086 21.5167 34.1448C22.2951 34.1207 22.8075 34.4632 23.054 35.1717C23.054 35.6852 23.054 36.1987 23.054 36.7121C21.8698 36.8638 20.8449 36.5642 19.9794 35.8136C16.4746 35.7707 12.9729 35.6423 9.47457 35.4285C9.03978 35.2067 8.74103 34.8644 8.57782 34.4016C8.52658 32.5061 8.39847 30.6236 8.1935 28.7535C8.40359 28.34 8.74539 28.1687 9.21836 28.2401C9.1356 29.9145 9.22092 31.5403 9.47457 33.1179Z" fill="#107B5F"/>
<path fill-rule="evenodd" clip-rule="evenodd" d="M26.641 31.0641C27.2388 31.1496 27.5805 31.492 27.6659 32.091C27.9703 33.0719 28.1411 34.0989 28.1783 35.1717C28.1778 36.0749 28.0925 36.9306 27.9221 37.739C27.6743 37.4037 27.3325 37.2325 26.8972 37.2255C26.3902 36.8887 25.9633 36.4608 25.6161 35.9419C25.5078 34.8883 25.166 33.9469 24.5913 33.1179C24.8923 33.0617 25.1485 33.1472 25.3599 33.3746C25.6067 34.0891 25.9057 34.7738 26.2567 35.4284C26.3128 35.0593 26.4409 34.7171 26.641 34.4015C26.878 34.6945 27.0917 34.6945 27.2815 34.4015C27.1086 33.9466 27.1511 33.476 27.4097 32.9895C27.2016 32.3164 26.9454 31.6746 26.641 31.0641Z" fill="#148C63"/>
<path fill-rule="evenodd" clip-rule="evenodd" d="M9.47456 33.1179C9.22091 31.5403 9.13559 29.9144 9.21834 28.2401C8.74537 28.1687 8.40358 28.3399 8.19348 28.7535C8.39845 30.6235 8.52656 32.5061 8.57781 34.4015C8.74101 34.8644 9.03976 35.2066 9.47456 35.4284C12.9729 35.6423 16.4746 35.7707 19.9794 35.8135C20.8449 36.5642 21.8698 36.8638 23.054 36.7121C23.054 36.1986 23.054 35.6852 23.054 35.1717C23.6215 36.356 23.28 37.1691 22.0291 37.6106C20.8223 37.8984 20.139 37.4278 19.9794 36.1986C16.3773 36.3088 12.7902 36.1804 9.21834 35.8135C8.73717 35.4174 8.35285 34.9468 8.06537 34.4015C8.05999 32.531 7.84657 30.691 7.42484 28.8819C7.73024 27.8729 8.41357 27.5305 9.47456 27.855C9.83172 28.1004 10.0026 28.4426 9.98699 28.8819C9.54092 30.2569 9.37002 31.6689 9.47456 33.1179Z" fill="#236E5B"/>
<path fill-rule="evenodd" clip-rule="evenodd" d="M43.0388 36.1987C41.4992 36.156 39.9619 36.1989 38.4269 36.327C38.277 36.6613 38.1064 36.9609 37.9145 37.2256C38.0556 36.3766 38.141 35.5209 38.1707 34.6583C41.3306 34.6583 44.4908 34.6583 47.6507 34.6583C48.1301 34.5661 48.5144 34.3094 48.8036 33.8881C48.889 32.1765 48.9745 30.4652 49.0599 28.7535C49.4393 28.0953 49.8236 28.0953 50.2128 28.7535C49.9663 30.45 49.881 32.1614 49.9566 33.8881C49.7004 33.8881 49.4442 33.8881 49.188 33.8881C49.188 34.3161 49.188 34.7438 49.188 35.1717C48.4677 35.2554 47.7844 35.4693 47.1382 35.8136C45.725 35.858 44.3586 35.9863 43.0388 36.1987Z" fill="#0D5446"/>
<path fill-rule="evenodd" clip-rule="evenodd" d="M0.507008 35.6852C0.763224 35.6852 1.01944 35.6852 1.27565 35.6852C1.27565 36.0274 1.27565 36.3699 1.27565 36.7121C0.390686 36.7719 0.134471 36.4297 0.507008 35.6852Z" fill="#465F56"/>
<path fill-rule="evenodd" clip-rule="evenodd" d="M57.1307 35.6852C57.3869 35.6852 57.6431 35.6852 57.8993 35.6852C57.8993 36.0274 57.8993 36.3699 57.8993 36.7121C57.6431 36.7121 57.3869 36.7121 57.1307 36.7121C57.1307 36.3699 57.1307 36.0274 57.1307 35.6852Z" fill="#435E55"/>
<path fill-rule="evenodd" clip-rule="evenodd" d="M38.1707 34.6583C38.141 35.5209 38.0557 36.3766 37.9145 37.2256C36.2565 38.214 35.2317 37.7434 34.8399 35.8136C35.0487 34.263 35.9027 33.7495 37.4021 34.2732C37.5927 34.54 37.8489 34.6683 38.1707 34.6583Z" fill="#1E8461"/>
<path fill-rule="evenodd" clip-rule="evenodd" d="M6.14374 38.5092C5.43018 38.3023 4.70406 38.1313 3.96591 37.9957C3.32793 38.2104 2.68739 38.3813 2.04429 38.5092C2.52444 37.7344 3.25055 37.3922 4.22212 37.4823C5.17166 37.3362 5.8122 37.6784 6.14374 38.5092Z" fill="#398E6F"/>
<path fill-rule="evenodd" clip-rule="evenodd" d="M30.228 29.0103C30.1855 30.126 30.2283 31.2384 30.3562 32.3477C30.4543 32.205 30.5824 32.1195 30.7405 32.091C30.215 33.9146 30.0869 35.7971 30.3562 37.739C31.0123 37.1627 31.1832 36.4782 30.8686 35.6852C31.2514 36.0054 31.6357 36.0054 32.0216 35.6852C32.3595 34.9299 32.6582 34.1597 32.9183 33.3747C33.1773 33.1598 33.4763 33.0743 33.8151 33.1179C33.1084 33.913 32.7241 34.8544 32.6621 35.9419C31.6577 36.6464 31.0172 37.5878 30.7405 38.7659C30.424 38.8227 30.1678 38.9939 29.9718 39.2794C29.7615 40.036 29.6334 40.8062 29.5875 41.59C29.3497 40.9391 28.8798 40.6824 28.1783 40.8198C28.1127 40.2313 28.198 39.675 28.4345 39.151C28.1714 39.0193 27.9152 38.891 27.6659 38.7659C27.2752 38.3254 27.0189 37.8119 26.8972 37.2256C27.3326 37.2325 27.6743 37.4037 27.9221 37.739C27.9121 38.0615 28.0402 38.3182 28.3064 38.5092C28.3497 36.706 28.4778 34.9089 28.6907 33.1179C29.0395 32.7257 29.3385 32.2977 29.5875 31.8343C29.6728 31.9198 29.7584 32.0055 29.8437 32.091C29.8888 31.0158 30.0169 29.9889 30.228 29.0103Z" fill="#0F6951"/>
<path fill-rule="evenodd" clip-rule="evenodd" d="M55.3371 37.9957C55.5183 38.4152 55.817 38.7577 56.2339 39.0226C56.4504 39.6978 56.3223 40.297 55.8496 40.8197C55.9349 40.991 56.0205 41.162 56.1058 41.3332C56.0171 41.6402 55.889 41.6402 55.7215 41.3332C55.6361 41.0765 55.5506 40.8197 55.4652 40.563C54.6574 41.2413 54.1875 42.097 54.0561 43.1303C53.0245 43.165 52.085 42.9082 51.2377 42.3601C51.2377 42.2746 51.2377 42.1889 51.2377 42.1034C52.0066 42.1706 52.6899 42.3848 53.2874 42.7452C53.1544 42.2251 53.0689 41.7116 53.0312 41.2048C54.0937 40.7432 54.179 40.2724 53.2874 39.7928C53.5454 39.0208 54.0579 38.5074 54.8247 38.2525C54.0699 37.9559 53.3012 37.9133 52.5188 38.1241C52.1885 38.5867 51.7614 38.8863 51.2377 39.0226C51.847 37.9457 52.7863 37.4322 54.0561 37.4823C54.5831 37.4658 55.0099 37.6368 55.3371 37.9957Z" fill="#0F8B61"/>
<path fill-rule="evenodd" clip-rule="evenodd" d="M6.14378 38.5092C6.31262 39.2678 6.39794 40.038 6.39999 40.8197C5.97877 40.8747 5.59445 40.7889 5.24702 40.563C4.47402 41.7401 3.40663 42.4245 2.04433 42.6168C1.7999 41.8677 1.629 41.0975 1.5319 40.3063C1.51678 39.6365 1.68768 39.0373 2.04433 38.5092C2.68743 38.3813 3.32797 38.2104 3.96595 37.9957C4.7041 38.1313 5.43022 38.3023 6.14378 38.5092Z" fill="#1AAE73"/>
<path fill-rule="evenodd" clip-rule="evenodd" d="M50.9815 40.0496C50.9815 40.563 50.9815 41.0765 50.9815 41.5899C46.7844 41.5119 42.5996 41.5974 38.4269 41.8467C38.1297 41.4095 38.3006 41.2385 38.9394 41.3332C38.9394 40.9052 38.9394 40.4775 38.9394 40.0496C42.9535 40.0496 46.9674 40.0496 50.9815 40.0496Z" fill="#11423A"/>
<path fill-rule="evenodd" clip-rule="evenodd" d="M7.42487 41.3332C11.3132 41.2487 15.1564 41.3342 18.9546 41.5899C14.879 41.429 10.8648 41.6002 6.91244 42.1034C6.85735 41.6723 7.02825 41.4156 7.42487 41.3332Z" fill="#44655B"/>
<path fill-rule="evenodd" clip-rule="evenodd" d="M7.16859 39.7929C12.7205 39.75 18.272 39.7929 23.8226 39.9212C24.9182 40.1279 25.8577 40.5985 26.641 41.3332C27.0069 41.9781 27.135 42.6626 27.0253 43.3871C26.6925 43.767 26.2654 43.938 25.7442 43.9005C24.1995 43.4173 22.6197 43.0751 21.0042 42.8736C20.8333 42.0179 20.3209 41.6754 19.4669 41.8467C19.2128 41.8908 19.0421 41.8051 18.9545 41.59C15.1564 41.3343 11.3131 41.2488 7.42481 41.3332C7.46965 40.7887 7.38407 40.2753 7.16859 39.7929Z" fill="#12725A"/>
<path fill-rule="evenodd" clip-rule="evenodd" d="M55.3371 37.9957C57.5772 39.1261 57.9616 40.752 56.4901 42.8736C55.1122 44.0915 53.6177 44.2198 52.0063 43.2587C51.6963 42.9919 51.4401 42.6923 51.2377 42.3601C52.085 42.9082 53.0245 43.1649 54.0561 43.1303C54.1875 42.097 54.6574 41.2413 55.4652 40.563C55.5506 40.8197 55.6361 41.0765 55.7215 41.3332C55.889 41.6402 56.0171 41.6402 56.1058 41.3332C56.0205 41.162 55.9349 40.991 55.8496 40.8197C56.3223 40.297 56.4504 39.6978 56.2339 39.0226C55.817 38.7577 55.5183 38.4152 55.3371 37.9957Z" fill="#1A7859"/>
<path fill-rule="evenodd" clip-rule="evenodd" d="M51.2377 42.1034C51.2818 41.8487 51.1962 41.6778 50.9815 41.59C50.9815 41.0765 50.9815 40.5631 50.9815 40.0496C50.9815 39.9641 50.9815 39.8784 50.9815 39.7929C51.2131 39.6109 51.2984 39.3541 51.2377 39.0227C51.7614 38.8864 52.1885 38.5868 52.5188 38.1241C53.3013 37.9134 54.0699 37.956 54.8247 38.2525C54.0579 38.5074 53.5454 39.0209 53.2874 39.7929C54.1791 40.2724 54.0937 40.7433 53.0312 41.2049C53.0689 41.7117 53.1545 42.2251 53.2874 42.7452C52.6899 42.3848 52.0066 42.1707 51.2377 42.1034Z" fill="#109B6A"/>
<path fill-rule="evenodd" clip-rule="evenodd" d="M2.04433 38.5092C1.68768 39.0373 1.51678 39.6365 1.5319 40.3063C1.62901 41.0975 1.7999 41.8677 2.04433 42.6168C3.40663 42.4246 4.47403 41.7401 5.24703 40.563C5.59446 40.7889 5.97878 40.8747 6.4 40.8198C6.39795 40.038 6.31263 39.2678 6.14378 38.5092C6.86734 38.6347 7.20887 39.0627 7.16865 39.7928C7.38412 40.2752 7.4697 40.7887 7.42486 41.3332C7.02824 41.4156 6.85734 41.6723 6.91243 42.1034C5.78918 43.9367 4.25189 44.3647 2.30055 43.387C0.982574 42.1591 0.683827 40.7042 1.40379 39.0227C1.58519 38.7965 1.79888 38.6255 2.04433 38.5092Z" fill="#229268"/>
<path fill-rule="evenodd" clip-rule="evenodd" d="M27.6658 38.766C27.9151 38.891 28.1713 39.0193 28.4345 39.151C28.198 39.675 28.1127 40.2314 28.1783 40.8198C28.8798 40.6824 29.3497 40.9392 29.5875 41.59C29.6333 40.8062 29.7614 40.036 29.9718 39.2794C30.1678 38.9939 30.424 38.8227 30.7404 38.766C30.4558 40.028 30.413 41.3117 30.6123 42.6169C31.415 41.1294 32.6536 40.2308 34.3274 39.9212C39.8781 39.7929 45.4295 39.75 50.9815 39.7929C50.9815 39.8784 50.9815 39.9641 50.9815 40.0496C46.9673 40.0496 42.9535 40.0496 38.9393 40.0496C38.9393 40.4776 38.9393 40.9053 38.9393 41.3332C38.3006 41.2385 38.1297 41.4095 38.4269 41.8467C37.4625 43.4759 36.0108 44.1177 34.0712 43.7721C33.2185 44.1519 32.5355 44.7079 32.0215 45.4409C31.7653 45.4409 31.5091 45.4409 31.2529 45.4409C31.0007 47.1068 30.7871 47.1068 30.6123 45.4409C30.3561 45.1842 30.0999 44.9274 29.8437 44.6707C29.7179 46.5756 29.4617 48.4582 29.075 50.3187C28.9513 50.0753 28.9087 49.8186 28.9469 49.5485C28.6054 49.5485 28.2636 49.5485 27.9221 49.5485C27.9641 50.2384 27.9213 50.9231 27.7939 51.6024C27.7501 50.2253 27.622 48.8559 27.4096 47.4947C27.2175 46.684 26.8759 45.9993 26.3848 45.4409C25.7283 44.7418 24.9597 44.1857 24.0788 43.7721C22.0855 44.1044 20.5482 43.4625 19.4669 41.8467C20.3209 41.6755 20.8333 42.0179 21.0042 42.8736C22.6197 43.0751 24.1995 43.4174 25.7442 43.9005C26.2654 43.938 26.6925 43.767 27.0253 43.3871C27.135 42.6626 27.0068 41.9781 26.641 41.3332C27.0824 41.7833 27.4668 42.2967 27.7939 42.8736C27.95 41.4973 27.9072 40.1279 27.6658 38.766Z" fill="#115648"/>
<path fill-rule="evenodd" clip-rule="evenodd" d="M14.3426 44.6707C14.3426 44.5852 14.3426 44.4994 14.3426 44.4139C16.1928 43.6692 17.132 44.2681 17.161 46.211C16.7057 46.2845 16.2786 46.4557 15.8799 46.7245C15.4123 46.429 14.8999 46.2578 14.3426 46.211C14.3426 45.6976 14.3426 45.1841 14.3426 44.6707Z" fill="#0C9769"/>
<path fill-rule="evenodd" clip-rule="evenodd" d="M8.19351 44.9274C10.3995 44.6042 10.9975 45.417 9.98702 47.3663C8.14022 47.573 7.54221 46.7599 8.19351 44.9274Z" fill="#257A5B"/>
<path fill-rule="evenodd" clip-rule="evenodd" d="M43.8075 46.4678C42.8031 47.489 41.7783 47.489 40.7329 46.4678C40.2774 44.0579 41.2169 43.2448 43.5513 44.0289C44.4427 44.7978 44.528 45.6106 43.8075 46.4678Z" fill="#2C6959"/>
<path fill-rule="evenodd" clip-rule="evenodd" d="M43.8074 46.4678C41.4689 47.2901 40.615 46.5199 41.2453 44.1572C43.2127 43.7657 44.067 44.5359 43.8074 46.4678Z" fill="#0D805F"/>
<path fill-rule="evenodd" clip-rule="evenodd" d="M14.3427 44.6706C14.3427 45.1841 14.3427 45.6976 14.3427 46.211C14.8999 46.2577 15.4124 46.429 15.88 46.7245C16.2786 46.4557 16.7057 46.2844 17.161 46.211C17.1321 44.2681 16.1928 43.6691 14.3427 44.4139C15.4359 43.3731 16.5036 43.4586 17.5454 44.6706C17.717 46.6374 16.8203 47.4502 14.8551 47.1096C14.5561 46.9812 14.3427 46.7673 14.2145 46.4677C14.0106 45.8159 14.0534 45.217 14.3427 44.6706Z" fill="#318065"/>
<path fill-rule="evenodd" clip-rule="evenodd" d="M36.121 45.4408C37.2371 45.3595 37.9201 45.8729 38.1707 46.9812C37.7264 48.4176 36.8297 48.8456 35.4804 48.2649C34.8038 47.0713 35.0172 46.1299 36.121 45.4408Z" fill="#15403D"/>
<path fill-rule="evenodd" clip-rule="evenodd" d="M47.9068 44.9274C50.0101 44.6327 50.6079 45.4029 49.7003 47.238C49.1039 47.5522 48.5061 47.5522 47.9068 47.238C47.614 46.4683 47.614 45.6981 47.9068 44.9274Z" fill="#226E5A"/>
<path fill-rule="evenodd" clip-rule="evenodd" d="M21.0043 45.4409C22.5101 45.3654 23.1506 46.0498 22.9259 47.4947C22.4491 48.3951 21.723 48.6944 20.7481 48.3933C20.0091 47.3217 20.0945 46.3376 21.0043 45.4409Z" fill="#1C6D59"/>
<path fill-rule="evenodd" clip-rule="evenodd" d="M32.0215 45.4409C32.0904 45.9361 31.9623 46.3638 31.6372 46.7245C31.6052 49.4753 31.4343 52.2139 31.1248 54.9398C30.2885 55.9226 29.2208 56.2222 27.9221 55.8384C27.5252 55.5267 27.2264 55.1416 27.0253 54.6831C27.0263 51.5777 26.8126 48.497 26.3848 45.4409C26.8759 45.9993 27.2175 46.6839 27.4096 47.4947C27.622 48.8559 27.7501 50.2253 27.794 51.6023C27.9213 50.923 27.9641 50.2383 27.9221 49.5485C28.2636 49.5485 28.6054 49.5485 28.9469 49.5485C28.9087 49.8186 28.9513 50.0753 29.075 50.3187C29.4617 48.4582 29.7179 46.5756 29.8437 44.6707C30.0999 44.9274 30.3561 45.1841 30.6123 45.4409C30.7871 47.1068 31.0007 47.1068 31.2529 45.4409C31.5091 45.4409 31.7653 45.4409 32.0215 45.4409Z" fill="#0B3D39"/>
<path fill-rule="evenodd" clip-rule="evenodd" d="M80.4025 20.6556C81.4472 21.0819 82.3781 21.6649 83.1948 22.4042C82.7296 22.4042 82.2639 22.4042 81.7987 22.4042C81.2329 21.8387 80.5348 21.4306 79.7045 21.1802C80.0242 21.0829 80.2566 20.9081 80.4025 20.6556Z" fill="#3B9870"/>
<path fill-rule="evenodd" clip-rule="evenodd" d="M80.4026 20.6556C80.2567 20.9081 80.0242 21.083 79.7045 21.1802C80.5348 21.4306 81.2329 21.8387 81.7987 22.4043C81.5404 24.1911 80.6099 24.7737 79.0064 24.1529C78.5411 24.1529 78.0755 24.1529 77.6103 24.1529C75.8651 24.1529 74.1199 24.1529 72.3747 24.1529C72.1227 24.2991 71.9482 24.532 71.8512 24.8524C71.6948 26.6116 71.4623 28.3602 71.1531 30.0984C70.9203 28.6995 70.6878 27.3005 70.455 25.9016C70.0613 26.5469 69.8868 27.2463 69.9315 28C69.3496 28 68.7681 28 68.1863 28C68.1863 25.4354 68.1863 22.8705 68.1863 20.3059C72.2665 20.2377 76.3384 20.3545 80.4026 20.6556Z" fill="#23BF7C"/>
<path fill-rule="evenodd" clip-rule="evenodd" d="M77.6103 19.9561C74.3527 19.9561 71.0948 19.9561 67.8372 19.9561C67.8372 27.0673 67.8372 34.1788 67.8372 41.2899C71.0948 41.2899 74.3527 41.2899 77.6103 41.2899C74.2993 41.6376 70.9255 41.754 67.4882 41.6397C67.4882 34.2952 67.4882 26.9508 67.4882 19.6064C70.9255 19.492 74.2993 19.6085 77.6103 19.9561Z" fill="#3D7761"/>
<path fill-rule="evenodd" clip-rule="evenodd" d="M77.6102 24.5027C79.3139 25.2752 80.71 26.4413 81.7987 28C82.9547 32.1989 81.5585 35.1133 77.6102 36.7434C75.9813 36.7434 74.3527 36.7434 72.7237 36.7434C72.7237 32.663 72.7237 28.583 72.7237 24.5027C74.3527 24.5027 75.9813 24.5027 77.6102 24.5027Z" fill="#131418"/>
<path fill-rule="evenodd" clip-rule="evenodd" d="M77.6102 24.5027C77.6102 24.3862 77.6102 24.2694 77.6102 24.1529C78.0755 24.1529 78.5411 24.1529 79.0064 24.1529C80.6961 24.8496 81.6269 26.1321 81.7987 28C80.71 26.4412 79.3139 25.2752 77.6102 24.5027Z" fill="#34936C"/>
<path fill-rule="evenodd" clip-rule="evenodd" d="M72.3746 24.1529C74.1198 24.1529 75.865 24.1529 77.6102 24.1529C77.6102 24.2694 77.6102 24.3862 77.6102 24.5027C75.9812 24.5027 74.3526 24.5027 72.7237 24.5027C72.7237 28.583 72.7237 32.663 72.7237 36.7434C74.3526 36.7434 75.9812 36.7434 77.6102 36.7434C75.9331 37.0885 74.1879 37.2054 72.3746 37.0931C72.3746 32.7798 72.3746 28.4662 72.3746 24.1529Z" fill="#113A2B"/>
<path fill-rule="evenodd" clip-rule="evenodd" d="M81.7986 22.4042C82.2639 22.4042 82.7295 22.4042 83.1948 22.4042C83.6011 23.344 84.2408 24.1599 85.1145 24.8524C85.1857 26.0055 85.4764 27.0547 85.9871 28C86.0447 29.0555 85.9864 30.1047 85.8126 31.1476C84.8663 30.6489 83.9937 30.7657 83.1948 31.4973C82.9616 30.516 82.7292 29.5836 82.4967 28.6995C82.4967 28.2333 82.2639 28 81.7986 28C81.6269 26.1321 80.696 24.8496 79.0063 24.1529C80.6098 24.7737 81.5404 24.191 81.7986 22.4042Z" fill="#17AF6F"/>
<path fill-rule="evenodd" clip-rule="evenodd" d="M123.334 25.5518C126.338 25.206 128.839 26.1383 130.838 28.3497C131.178 29.0114 131.411 29.7109 131.536 30.4481C131.711 34.1766 131.769 37.9073 131.711 41.6396C130.315 41.6396 128.919 41.6396 127.522 41.6396C127.559 40.012 127.094 39.8371 126.126 41.115C123.887 42.2405 121.676 42.1821 119.495 40.9402C116.74 37.1522 117.555 34.4127 121.938 32.7214C123.81 32.6616 125.672 32.4867 127.522 32.1968C127.006 30.8531 126.016 30.0368 124.556 29.7487C123.404 30.0215 122.298 30.3712 121.24 30.7979C120.167 30.7688 119.352 30.3026 118.797 29.3989C118.331 28.9327 118.331 28.4662 118.797 28C119.445 27.4082 120.144 26.8836 120.891 26.4262C121.8 26.2898 122.614 25.9981 123.334 25.5518Z" fill="#153A3E"/>
<path fill-rule="evenodd" clip-rule="evenodd" d="M166.964 29.7487C163.251 29.272 161.39 30.9042 161.379 34.645C161.59 37.1854 162.986 38.3515 165.567 38.1423C166.596 37.8604 167.526 37.3942 168.36 36.7434C169.292 35.1727 170.281 33.657 171.327 32.1968C171.624 32.7651 171.973 32.8816 172.374 32.5466C172.547 33.3544 172.605 34.1704 172.548 34.9947C172.548 35.1112 172.548 35.228 172.548 35.3444C172.067 34.9227 171.659 35.0391 171.327 35.6942C170.592 37.2872 169.603 38.6861 168.36 39.891C166.626 40.2974 164.881 40.3558 163.124 40.0659C162.244 39.5969 161.313 39.3055 160.332 39.1915C160.332 41.0566 160.332 42.9221 160.332 44.7873C159.75 44.7873 159.169 44.7873 158.587 44.7873C158.289 38.9607 158.231 33.1317 158.412 27.3005C158.743 26.3563 159.384 26.0649 160.332 26.4262C160.893 26.7931 161.125 27.3177 161.03 28C162.469 27.2334 163.982 26.6507 165.567 26.2513C166.552 26.2695 167.483 26.5028 168.36 26.9508C168.669 27.2393 168.785 27.5891 168.709 28C169.188 27.9451 169.654 28.0035 170.105 28.1749C169.811 28.7999 169.752 29.4409 169.93 30.0984C169.786 30.2582 169.611 30.3751 169.407 30.4482C168.701 29.863 167.886 29.6298 166.964 29.7487Z" fill="#103D3F"/>
<path fill-rule="evenodd" clip-rule="evenodd" d="M83.1948 22.4042C86.6629 25.3294 87.8845 29.06 86.8597 33.5957C86.3728 35.0013 85.733 36.2838 84.94 37.4428C85.421 36.2013 85.77 34.9188 85.9871 33.5957C86.4524 31.7306 86.4524 29.8651 85.9871 28C85.4765 27.0547 85.1857 26.0055 85.1145 24.8524C84.2409 24.1599 83.6011 23.344 83.1948 22.4042Z" fill="#348665"/>
<path fill-rule="evenodd" clip-rule="evenodd" d="M94.364 25.5519C97.3259 25.3539 99.7692 26.3447 101.694 28.5246C101.868 29.0492 102.043 29.5738 102.217 30.0984C102.392 33.9438 102.45 37.7908 102.392 41.6397C100.996 41.6397 99.5995 41.6397 98.2034 41.6397C98.2673 39.6056 97.802 39.4307 96.8072 41.1151C94.3982 42.2881 92.0712 42.1132 89.8265 40.5905C87.7976 37.7562 88.1466 35.2497 90.8736 33.0712C93.3047 32.7183 95.7479 32.427 98.2034 32.1968C97.4435 30.5345 96.164 29.7767 94.364 29.9236C93.4558 30.2652 92.5832 30.6734 91.7462 31.1476C90.8087 30.7363 89.9944 30.1533 89.303 29.399C89.0304 28.8939 89.0886 28.4277 89.4775 28C90.8719 26.6448 92.5005 25.8289 94.364 25.5519Z" fill="#163A3E"/>
<path fill-rule="evenodd" clip-rule="evenodd" d="M107.278 22.0545C108.907 22.0545 110.536 22.0545 112.165 22.0545C112.165 23.337 112.165 24.6191 112.165 25.9016C113.677 25.9016 115.19 25.9016 116.702 25.9016C116.702 27.3006 116.702 28.6995 116.702 30.0984C115.19 30.0984 113.677 30.0984 112.165 30.0984C112.165 32.5466 112.165 34.9947 112.165 37.4428C113.355 37.5306 114.518 37.4138 115.655 37.0931C116.121 38.4921 116.121 39.891 115.655 41.2899C111.114 42.8935 108.38 41.3777 107.453 36.7434C107.278 34.5313 107.22 32.3164 107.278 30.0984C106.347 30.0984 105.417 30.0984 104.486 30.0984C104.486 28.6995 104.486 27.3006 104.486 25.9016C105.417 25.9016 106.347 25.9016 107.278 25.9016C107.278 24.6191 107.278 23.337 107.278 22.0545Z" fill="#133A3E"/>
<path fill-rule="evenodd" clip-rule="evenodd" d="M93.6659 35.3445C95.0621 35.3445 96.4582 35.3445 97.8544 35.3445C97.7695 37.2365 96.7807 38.2857 94.8875 38.4921C92.9319 37.9856 92.5249 36.9364 93.6659 35.3445Z" fill="#131418"/>
<path fill-rule="evenodd" clip-rule="evenodd" d="M123.334 35.3445C124.73 35.3445 126.126 35.3445 127.523 35.3445C127.518 37.3942 126.471 38.4434 124.381 38.4921C122.116 37.9801 121.767 36.9308 123.334 35.3445Z" fill="#131418"/>
<path fill-rule="evenodd" clip-rule="evenodd" d="M85.9871 28C86.4524 29.8651 86.4524 31.7306 85.9871 33.5958C85.3941 33.5398 84.8123 33.5978 84.242 33.7706C85.1987 34.9045 85.0824 35.9537 83.8929 36.9182C83.5498 37.1249 83.317 37.0081 83.1949 36.5685C83.8168 35.9816 83.9331 35.3406 83.5439 34.645C82.7202 35.7036 81.7893 36.6363 80.7516 37.4428C80.0972 37.9101 79.6319 37.7352 79.3555 36.9182C82.2039 34.9517 83.2511 32.2122 82.4968 28.6995C82.7292 29.5836 82.9617 30.516 83.1949 31.4973C83.9938 30.7657 84.8664 30.6489 85.8126 31.1476C85.9865 30.1047 86.0447 29.0555 85.9871 28Z" fill="#099B68"/>
<path fill-rule="evenodd" clip-rule="evenodd" d="M72.3747 24.1529C72.3747 28.4662 72.3747 32.7798 72.3747 37.0931C74.6556 37.3456 76.9827 37.6369 79.3554 37.9674C77.4863 38.5809 75.5666 38.989 73.5963 39.1915C73.0951 39.1709 72.6298 39.0544 72.2002 38.8418C72.0012 40.0113 71.5942 40.1277 70.9785 39.1915C70.6543 39.6073 70.5381 40.0735 70.6295 40.5904C70.2805 40.5904 69.9314 40.5904 69.5824 40.5904C69.6243 39.6444 69.2752 39.4111 68.5353 39.891C68.1866 35.9341 68.0704 31.9705 68.1863 28C68.7681 28 69.3496 28 69.9314 28C69.8868 27.2463 70.0613 26.5468 70.455 25.9016C70.6878 27.3005 70.9203 28.6995 71.1531 30.0984C71.4623 28.3602 71.6948 26.6115 71.8511 24.8524C71.9482 24.532 72.1227 24.2991 72.3747 24.1529Z" fill="#18A26E"/>
<path fill-rule="evenodd" clip-rule="evenodd" d="M77.6102 19.9561C78.613 20.0617 79.5435 20.295 80.4025 20.6556C76.3383 20.3545 72.2665 20.2376 68.1862 20.3058C68.1862 22.8704 68.1862 25.4354 68.1862 28C68.0703 31.9705 68.1866 35.9341 68.5353 39.891C69.2752 39.4111 69.6243 39.6444 69.5824 40.5904C69.9314 40.5904 70.2804 40.5904 70.6295 40.5904C70.538 40.0735 70.6543 39.6073 70.9785 39.1915C71.5942 40.1277 72.0012 40.0113 72.2001 38.8418C72.6298 39.0544 73.0951 39.1709 73.5963 39.1915C75.5666 38.989 77.4863 38.5809 79.3554 37.9674C76.9826 37.6369 74.6556 37.3456 72.3747 37.0931C74.1879 37.2054 75.9331 37.0886 77.6102 36.7434C81.5585 35.1133 82.9547 32.1989 81.7986 28C82.2639 28 82.4967 28.2333 82.4967 28.6995C83.251 32.2122 82.2039 34.9517 79.3554 36.9182C79.6318 37.7352 80.0971 37.9101 80.7515 37.4428C81.7892 36.6363 82.7201 35.7036 83.5438 34.645C83.933 35.3406 83.8168 35.9816 83.1948 36.5685C83.317 37.0081 83.5498 37.1249 83.8929 36.9182C85.0824 35.9537 85.1986 34.9045 84.2419 33.7706C84.8122 33.5979 85.3941 33.5398 85.9871 33.5958C85.77 34.9188 85.4209 36.2013 84.94 37.4428C83.5086 39.2691 81.6472 40.4932 79.3554 41.115C78.7851 41.2878 78.2032 41.3459 77.6102 41.2899C74.3527 41.2899 71.0947 41.2899 67.8372 41.2899C67.8372 34.1788 67.8372 27.0673 67.8372 19.9561C71.0947 19.9561 74.3527 19.9561 77.6102 19.9561Z" fill="#179066"/>
<path fill-rule="evenodd" clip-rule="evenodd" d="M135.201 19.6064C136.83 19.6064 138.459 19.6064 140.088 19.6064C140.029 24.2708 140.088 28.9342 140.262 33.5958C141.582 37.0914 143.967 38.0822 147.418 36.5685C148.453 35.8341 149.093 34.8429 149.337 33.5958C149.512 28.9342 149.57 24.2708 149.512 19.6064C151.141 19.6064 152.769 19.6064 154.398 19.6064C154.457 24.6205 154.398 29.6336 154.224 34.645C152.932 39.4335 149.79 41.8817 144.8 41.9894C140.409 42.1422 137.384 40.1603 135.725 36.0439C135.223 30.5849 135.049 25.1056 135.201 19.6064Z" fill="#173D40"/>
<path fill-rule="evenodd" clip-rule="evenodd" d="M172.548 34.9947C172.605 34.1704 172.547 33.3544 172.374 32.5465C171.973 32.8816 171.624 32.7651 171.326 32.1968C170.281 33.6569 169.292 35.1727 168.36 36.7434C167.526 37.3942 166.596 37.8604 165.567 38.1423C162.986 38.3514 161.59 37.1854 161.379 34.6449C163.626 38.2101 166.012 38.327 168.534 34.9947C168.822 33.8119 168.764 32.6459 168.36 31.4973C167.853 30.908 167.387 30.3254 166.964 29.7487C167.886 29.6298 168.701 29.863 169.407 30.4481C169.611 30.375 169.786 30.2582 169.93 30.0984C169.752 29.4409 169.811 28.7998 170.105 28.1749C169.654 28.0035 169.188 27.9451 168.709 28C168.785 27.5891 168.669 27.2393 168.36 26.9508C167.483 26.5028 166.552 26.2695 165.567 26.2513C163.982 26.6507 162.469 27.2334 161.03 28C161.125 27.3177 160.893 26.7931 160.332 26.4262C159.384 26.0649 158.743 26.3562 158.412 27.3005C158.231 33.1316 158.289 38.9607 158.587 44.7872C159.169 44.7872 159.75 44.7872 160.332 44.7872C160.332 42.9221 160.332 41.0566 160.332 39.1915C161.313 39.3055 162.244 39.5968 163.124 40.0658C164.881 40.3558 166.626 40.2974 168.36 39.891C169.603 38.6861 170.592 37.2872 171.326 35.6941C171.659 35.0391 172.066 34.9226 172.548 35.3444C171.493 38.9596 169.05 40.9416 165.218 41.2899C163.987 41.1563 162.824 40.8066 161.728 40.2407C161.38 42.5608 161.264 44.8922 161.379 47.2354C160.099 47.2354 158.819 47.2354 157.54 47.2354C157.54 40.1242 157.54 33.0127 157.54 25.9016C158.819 25.9016 160.099 25.9016 161.379 25.9016C161.323 26.4958 161.381 27.0788 161.553 27.6503C162.535 26.2552 163.873 25.6722 165.567 25.9016C171.106 26.5231 173.433 29.5539 172.548 34.9947Z" fill="#1E3B3D"/>
<path fill-rule="evenodd" clip-rule="evenodd" d="M166.964 29.7487C167.387 30.3254 167.853 30.908 168.36 31.4973C168.764 32.6459 168.822 33.8119 168.534 34.9947C166.012 38.3269 163.626 38.2101 161.379 34.6449C161.39 30.9042 163.251 29.272 166.964 29.7487Z" fill="#131418"/>
</svg>
