<svg width="29" height="29" viewBox="0 0 29 29" fill="none" xmlns="http://www.w3.org/2000/svg">
<path fill-rule="evenodd" clip-rule="evenodd" d="M10.5003 4.06754C10.7175 4.06758 10.9289 4.1384 11.1024 4.26927C11.2758 4.40014 11.4019 4.58394 11.4616 4.79287L12.5456 8.58753C12.779 9.40476 13.2169 10.149 13.8178 10.75C14.4188 11.3509 15.163 11.7888 15.9803 12.0222L19.7749 13.1062C19.9837 13.166 20.1674 13.2922 20.2981 13.4656C20.4288 13.6391 20.4995 13.8503 20.4995 14.0675C20.4995 14.2847 20.4288 14.496 20.2981 14.6695C20.1674 14.8429 19.9837 14.9691 19.7749 15.0289L15.9803 16.1129C15.163 16.3463 14.4188 16.7841 13.8178 17.3851C13.2169 17.9861 12.779 18.7303 12.5456 19.5475L11.4616 23.3422C11.4018 23.551 11.2756 23.7346 11.1022 23.8654C10.9287 23.9961 10.7174 24.0668 10.5003 24.0668C10.2831 24.0668 10.0718 23.9961 9.89834 23.8654C9.7249 23.7346 9.59873 23.551 9.53892 23.3422L8.45492 19.5475C8.22152 18.7303 7.78366 17.9861 7.18269 17.3851C6.58172 16.7841 5.83748 16.3463 5.02026 16.1129L1.22559 15.0289C1.0168 14.9691 0.833151 14.8429 0.702419 14.6695C0.571688 14.496 0.500977 14.2847 0.500977 14.0675C0.500977 13.8503 0.571688 13.6391 0.702419 13.4656C0.833151 13.2922 1.0168 13.166 1.22559 13.1062L5.02026 12.0222C5.83748 11.7888 6.58172 11.3509 7.18269 10.75C7.78366 10.149 8.22152 9.40476 8.45492 8.58753L9.53892 4.79287C9.5986 4.58394 9.72471 4.40014 9.89816 4.26927C10.0716 4.1384 10.283 4.06758 10.5003 4.06754ZM22.5003 0.0675356C22.7233 0.0674113 22.9401 0.141887 23.116 0.279117C23.2918 0.416347 23.4168 0.60845 23.4709 0.824869L23.8149 2.2062C24.1296 3.45954 25.1083 4.4382 26.3616 4.75287L27.7429 5.09687C27.9598 5.15058 28.1524 5.27534 28.29 5.45127C28.4277 5.62719 28.5025 5.84415 28.5025 6.06753C28.5025 6.29092 28.4277 6.50788 28.29 6.6838C28.1524 6.85973 27.9598 6.98449 27.7429 7.0382L26.3616 7.3822C25.1083 7.69687 24.1296 8.67554 23.8149 9.92887L23.4709 11.3102C23.4172 11.527 23.2924 11.7196 23.1165 11.8573C22.9406 11.995 22.7236 12.0698 22.5003 12.0698C22.2769 12.0698 22.0599 11.995 21.884 11.8573C21.7081 11.7196 21.5833 11.527 21.5296 11.3102L21.1856 9.92887C21.0317 9.31344 20.7135 8.7514 20.265 8.30283C19.8164 7.85427 19.2543 7.53605 18.6389 7.3822L17.2576 7.0382C17.0408 6.98449 16.8481 6.85973 16.7105 6.6838C16.5728 6.50788 16.498 6.29092 16.498 6.06753C16.498 5.84415 16.5728 5.62719 16.7105 5.45127C16.8481 5.27534 17.0408 5.15058 17.2576 5.09687L18.6389 4.75287C19.2543 4.59902 19.8164 4.2808 20.265 3.83224C20.7135 3.38367 21.0317 2.82163 21.1856 2.2062L21.5296 0.824869C21.5837 0.60845 21.7087 0.416347 21.8846 0.279117C22.0604 0.141887 22.2772 0.0674113 22.5003 0.0675356ZM20.5003 18.0675C20.7103 18.0674 20.915 18.1334 21.0854 18.2562C21.2558 18.379 21.3832 18.5523 21.4496 18.7515L21.9749 20.3289C22.1749 20.9249 22.6416 21.3942 23.2389 21.5929L24.8163 22.1195C25.0149 22.1862 25.1875 22.3136 25.3099 22.4837C25.4322 22.6538 25.498 22.858 25.498 23.0675C25.498 23.277 25.4322 23.4813 25.3099 23.6514C25.1875 23.8215 25.0149 23.9489 24.8163 24.0155L23.2389 24.5422C22.6429 24.7422 22.1736 25.2089 21.9749 25.8062L21.4483 27.3835C21.3816 27.5822 21.2542 27.7548 21.0841 27.8771C20.914 27.9995 20.7098 28.0653 20.5003 28.0653C20.2907 28.0653 20.0865 27.9995 19.9164 27.8771C19.7463 27.7548 19.6189 27.5822 19.5523 27.3835L19.0256 25.8062C18.9274 25.5119 18.762 25.2445 18.5427 25.0251C18.3233 24.8057 18.0559 24.6404 17.7616 24.5422L16.1843 24.0155C15.9856 23.9489 15.813 23.8215 15.6907 23.6514C15.5683 23.4813 15.5025 23.277 15.5025 23.0675C15.5025 22.858 15.5683 22.6538 15.6907 22.4837C15.813 22.3136 15.9856 22.1862 16.1843 22.1195L17.7616 21.5929C18.3576 21.3929 18.8269 20.9262 19.0256 20.3289L19.5523 18.7515C19.6186 18.5525 19.7458 18.3793 19.9159 18.2566C20.086 18.1338 20.2905 18.0677 20.5003 18.0675Z" fill="url(#paint0_linear_7_1236)"/>
<defs>
<linearGradient id="paint0_linear_7_1236" x1="0.500977" y1="14.0664" x2="28.5025" y2="14.0664" gradientUnits="userSpaceOnUse">
<stop stop-color="#23BF7C"/>
<stop offset="1" stop-color="#10593A"/>
</linearGradient>
</defs>
</svg>
