<svg width="33" height="33" viewBox="0 0 33 33" fill="none" xmlns="http://www.w3.org/2000/svg">
<path fill-rule="evenodd" clip-rule="evenodd" d="M4.5 8.06754C4.5 7.00667 4.92143 5.98925 5.67157 5.23911C6.42172 4.48896 7.43913 4.06754 8.5 4.06754H24.5C25.5609 4.06754 26.5783 4.48896 27.3284 5.23911C28.0786 5.98925 28.5 7.00667 28.5 8.06754V24.0675C28.5 25.1284 28.0786 26.1458 27.3284 26.896C26.5783 27.6461 25.5609 28.0675 24.5 28.0675H8.5C7.43913 28.0675 6.42172 27.6461 5.67157 26.896C4.92143 26.1458 4.5 25.1284 4.5 24.0675V8.06754ZM23.5 16.0675C23.4998 16.3327 23.3943 16.5868 23.2067 16.7742L20.2067 19.7742C20.1151 19.8725 20.0047 19.9513 19.8821 20.0059C19.7594 20.0606 19.627 20.09 19.4927 20.0923C19.3584 20.0947 19.2251 20.07 19.1005 20.0197C18.976 19.9694 18.8629 19.8945 18.768 19.7996C18.673 19.7046 18.5981 19.5915 18.5478 19.467C18.4975 19.3425 18.4728 19.2091 18.4752 19.0748C18.4776 18.9406 18.507 18.8082 18.5616 18.6855C18.6163 18.5628 18.6951 18.4524 18.7933 18.3609L21.0867 16.0675L18.7933 13.7742C18.6951 13.6827 18.6163 13.5723 18.5616 13.4496C18.507 13.3269 18.4776 13.1945 18.4752 13.0602C18.4728 12.926 18.4975 12.7926 18.5478 12.6681C18.5981 12.5436 18.673 12.4304 18.768 12.3355C18.8629 12.2405 18.976 12.1657 19.1005 12.1154C19.2251 12.0651 19.3584 12.0404 19.4927 12.0427C19.627 12.0451 19.7594 12.0745 19.8821 12.1292C20.0047 12.1838 20.1151 12.2626 20.2067 12.3609L23.2067 15.3609C23.3947 15.5475 23.5 15.8022 23.5 16.0675ZM9.79333 15.3609C9.60607 15.5484 9.50088 15.8025 9.50088 16.0675C9.50088 16.3325 9.60607 16.5867 9.79333 16.7742L12.7933 19.7742C12.8849 19.8725 12.9953 19.9513 13.1179 20.0059C13.2406 20.0606 13.373 20.09 13.5073 20.0923C13.6416 20.0947 13.7749 20.07 13.8995 20.0197C14.024 19.9694 14.1371 19.8945 14.2321 19.7996C14.327 19.7046 14.4019 19.5915 14.4522 19.467C14.5025 19.3425 14.5272 19.2091 14.5248 19.0748C14.5224 18.9406 14.493 18.8082 14.4384 18.6855C14.3837 18.5628 14.3049 18.4524 14.2067 18.3609L11.9133 16.0675L14.2067 13.7742C14.3049 13.6827 14.3837 13.5723 14.4384 13.4496C14.493 13.3269 14.5224 13.1945 14.5248 13.0602C14.5272 12.926 14.5025 12.7926 14.4522 12.6681C14.4019 12.5436 14.327 12.4304 14.2321 12.3355C14.1371 12.2405 14.024 12.1657 13.8995 12.1154C13.7749 12.0651 13.6416 12.0404 13.5073 12.0427C13.373 12.0451 13.2406 12.0745 13.1179 12.1292C12.9953 12.1838 12.8849 12.2626 12.7933 12.3609L9.79333 15.3609Z" fill="url(#paint0_linear_7_1249)"/>
<defs>
<linearGradient id="paint0_linear_7_1249" x1="4.5" y1="16.0675" x2="28.5" y2="16.0675" gradientUnits="userSpaceOnUse">
<stop stop-color="#23BF7C"/>
<stop offset="1" stop-color="#10593A"/>
</linearGradient>
</defs>
</svg>
